<svg id="Layer_1" data-name="Layer 1" xmlns="http://www.w3.org/2000/svg" viewBox="0 0 1241 429"><defs><style>.cls-1{fill:#fff;}.cls-2{fill:#ffa22a;}</style></defs><title>bch redesign</title><circle class="cls-1" cx="135.75" cy="222.94" r="88.12"/><path class="cls-2" d="M75.55,310.48H47.62a127.9,127.9,0,0,1,.32-178.85H76.43c-29.71,22.55-46,52-46,89.41s16.29,66.89,45.88,89.38C76.13,310.63,75.81,310.48,75.55,310.48Zm155-178.85H202.88a1.49,1.49,0,0,0-1,.13c29.69,22.47,45.95,52.05,45.92,89.4s-16.31,66.9-46,89.35h29.06a127.88,127.88,0,0,0-.3-178.88ZM240,222.74a100.94,100.94,0,0,1-102.31,99.45c-55.39-.74-100.55-46.66-99.38-103.3C39.4,164.08,84.4,119.79,139.15,120,194.15,119.75,240.81,165.09,240,222.74Zm-52.25-1.3c-1.33-4.55-3.44-8.63-7.49-11.4-3.52-2.41-7.55-3.18-11.7-3.51-.38,0-.93.18-1.08-.27s.38-.59.63-.84a17.53,17.53,0,0,0,5.32-12.31,22.65,22.65,0,0,0-2.19-9c-2.88-6.25-7.59-10-14.51-10.92-4.83-.64-9.63-.21-14.44.23-1.87.17-1.86.18-2.34-1.63-1.34-5-2.45-10.1-3.9-15.09-.26-.89-.6-1.08-1.47-.84-3,.81-6,1.55-9,2.29-.69.17-.89.48-.71,1.18.48,1.83.89,3.68,1.37,5.51.85,3.27,1.77,6.52,2.31,9.86.09.56.42,1.26-.58,1.5-2.27.55-4.53,1.15-6.79,1.77-.7.19-.92-.13-1-.74-.2-1-.43-2-.68-3q-1.58-6.37-3.19-12.74c-.11-.42-.07-1-.88-.78q-4.78,1.29-9.61,2.45c-.78.19-.85.53-.66,1.26,1.38,5.31,2.69,10.65,4.06,16,.21.82.11,1.17-.79,1.36-2,.41-4,.92-6,1.41q-7.12,1.77-14.26,3.59c-.43.11-1.1,0-.85.92.92,3.33,1.83,6.66,2.65,10,.27,1.13.73,1.29,1.77,1a48.22,48.22,0,0,1,7.08-2c4.07-.6,6.21.76,7.24,4.73.93,3.6,1.78,7.21,2.7,10.81,2.55,10,4.8,20.06,7.57,30a43.85,43.85,0,0,1,1.69,7.25c.24,2.37-.46,3.63-2.59,4.65a11.62,11.62,0,0,1-2.77.82,35.5,35.5,0,0,0-4.91,1c-.58.21-.93.47-.87,1.2q.54,5.94,1,11.87c.07,1,.45,1.1,1.33.84,6.62-2,13.37-3.45,20.1-5,.68-.16.94,0,1.08.65.27,1.27.59,2.53.89,3.79,1,4.26,2,8.53,3.28,12.72.13.41.14,1,.83.72,3.14-1.06,6.44-1.47,9.62-2.37.58-.16.78-.36.61-1-.56-2.16-1-4.33-1.58-6.49-.82-3.28-1.74-6.53-2.4-9.84-.1-.49-.36-1,.47-1.19,1.78-.4,3.52-.92,5.3-1.31,2.59-.58,2.6-.55,3.25,2,1.26,4.85,2.52,9.7,3.74,14.56.16.65.39.82,1.07.66,3-.73,6-1.39,9-2.23,1.11-.32,1.33-.72,1-1.85-1.39-5-2.82-10.08-3.76-15.23-.28-1.51-.29-1.51,1.17-2,3.36-1.2,6.71-2.43,9.94-3.95,4.51-2.12,8.74-4.65,11.7-8.81C189.35,236.8,190,229.32,187.7,221.44Zm-29.91-.64a16.54,16.54,0,0,0-4.86-.39c-.85,0-1.71-.07-2.56,0-6,.58-11.79,2.26-17.58,3.84-.52.15-.75.32-.56.92,2.19,7,3.58,14.16,5.44,21.22.55,2.09.56,2.1,2.59,1.58,5.1-1.3,10.28-2.33,15.13-4.45,3.25-1.42,6.37-3.05,8.55-6C168.85,230.87,165.84,222.66,157.79,220.8ZM150,204.4a9.24,9.24,0,0,0-1.66-14.58,13.86,13.86,0,0,0-8.22-1.9c-5.35.21-10.43,1.79-15.52,3.25-.63.18-.54.59-.44,1.05q2.32,10.14,5.1,20.16c.18.67.47.85,1.17.71a57.31,57.31,0,0,0,8.27-2.22C142.87,209.37,146.87,207.6,150,204.4Z"/><path class="cls-2" d="M345.44,287.55q-10.83,0-21.58-.66a153.09,153.09,0,0,1-22.34-3.14V156a189.74,189.74,0,0,1,20-2.57q10.84-.85,20.16-.85a136.62,136.62,0,0,1,23.1,1.81,54.71,54.71,0,0,1,18.16,6.17,32.35,32.35,0,0,1,11.88,11.51q4.28,7.13,4.28,17.58,0,15.8-15.21,24.91,12.54,4.76,17.11,12.93a37.21,37.21,0,0,1,4.56,18.44q0,20.73-15.11,31.19T345.44,287.55Zm-15-81.75h14.45q13.69,0,19.58-3.52t5.9-11.31q0-8-6.09-11.22t-17.87-3.23q-3.81,0-8.17.09t-7.8.48Zm0,22.62v34q3.22.38,7,.57c2.53.12,5.32.19,8.36.19q13.31,0,21.49-3.81t8.17-14.07q0-9.12-6.84-13t-19.59-3.9Z"/><path class="cls-2" d="M449.44,156.93q0,7.8-5,12.27a18.07,18.07,0,0,1-23.77,0q-5-4.47-5-12.27t5-12.26a18,18,0,0,1,23.77,0Q449.43,149.14,449.44,156.93Zm-2.66,128.91H418.45v-100h28.33Z"/><path class="cls-2" d="M463.51,160.93l28.33-4.57v29.47h34v23.58h-34v35.17q0,8.94,3.14,14.26t12.64,5.33a54.16,54.16,0,0,0,9.41-.86,48,48,0,0,0,8.84-2.38l4,22.06a79.27,79.27,0,0,1-11.4,3.61,66.15,66.15,0,0,1-15.4,1.52q-11.61,0-19.21-3.13a30.26,30.26,0,0,1-12.17-8.75,32.53,32.53,0,0,1-6.36-13.59A80,80,0,0,1,463.51,245Z"/><path class="cls-2" d="M531.39,235.84a58.81,58.81,0,0,1,3.52-20.44,47.87,47.87,0,0,1,26.33-28.05,53.47,53.47,0,0,1,21.68-4.18,70,70,0,0,1,14.64,1.43,70.79,70.79,0,0,1,12.92,4.09l-5.89,22.62a71.93,71.93,0,0,0-8.75-2.66,45.74,45.74,0,0,0-10.64-1.14q-12.56,0-18.73,7.79t-6.18,20.54q0,13.5,5.8,20.91t20.25,7.42a69.76,69.76,0,0,0,11-.95,47,47,0,0,0,10.84-3.05l4,23.2A65.58,65.58,0,0,1,599.84,287a81.18,81.18,0,0,1-16.36,1.53q-13.68,0-23.57-4.09a44.42,44.42,0,0,1-16.26-11.13,43.33,43.33,0,0,1-9.32-16.63A70.79,70.79,0,0,1,531.39,235.84Z"/><path class="cls-2" d="M711.07,235.65a65.08,65.08,0,0,1-3.43,21.58A47,47,0,0,1,697.76,274a44.5,44.5,0,0,1-15.5,10.74,55.21,55.21,0,0,1-40.31,0A44.27,44.27,0,0,1,626.46,274a48.91,48.91,0,0,1-10.08-16.73,61.89,61.89,0,0,1-3.61-21.58,59.8,59.8,0,0,1,3.7-21.49,48.75,48.75,0,0,1,10.27-16.54A46.21,46.21,0,0,1,642.33,187a50.28,50.28,0,0,1,19.68-3.8,50.81,50.81,0,0,1,19.87,3.8,45.22,45.22,0,0,1,15.49,10.65,48.35,48.35,0,0,1,10.08,16.54A61.14,61.14,0,0,1,711.07,235.65Zm-28.91,0q0-13.12-5.22-20.63T662,207.51q-9.69,0-15,7.51t-5.32,20.63q0,13.11,5.32,20.82t15,7.7q9.69,0,14.93-7.7T682.16,235.65Z"/><path class="cls-2" d="M755,156.93q0,7.8-5,12.27a18.05,18.05,0,0,1-23.76,0q-5-4.47-5-12.27t5-12.26a18,18,0,0,1,23.76,0Q755,149.14,755,156.93Zm-2.66,128.91H724v-100h28.33Z"/><path class="cls-2" d="M770,189.26a156.17,156.17,0,0,1,18.63-3.9,153.66,153.66,0,0,1,24-1.81q12.74,0,21.2,3.33a31.78,31.78,0,0,1,13.4,9.41,36.7,36.7,0,0,1,7,14.45,77.12,77.12,0,0,1,2.09,18.63v56.47H828v-53q0-13.7-3.61-19.4t-13.5-5.7q-3,0-6.46.28c-2.29.19-4.32.42-6.09.67v77.19H770Z"/><path class="cls-2" d="M935,289.42a67.57,67.57,0,0,1-25.29-4.56,53.92,53.92,0,0,1-19.58-13.31A60.08,60.08,0,0,1,877.52,250a89.41,89.41,0,0,1-4.46-29.38q0-16.54,5-29.37a63.55,63.55,0,0,1,13.59-21.58,57.47,57.47,0,0,1,20-13.31A64.79,64.79,0,0,1,936,151.76a86.64,86.64,0,0,1,14.74,1.14,88.75,88.75,0,0,1,11.4,2.67,54.31,54.31,0,0,1,7.89,3,43.18,43.18,0,0,1,4.19,2.28l-5.33,15.21a29.86,29.86,0,0,0-4.94-2.47q-3.24-1.33-7.32-2.66a65.35,65.35,0,0,0-8.94-2.19,56.2,56.2,0,0,0-9.79-.86,47,47,0,0,0-18.82,3.62A39,39,0,0,0,904.81,182a47.24,47.24,0,0,0-9,16.64,71.85,71.85,0,0,0-3.14,22,78.41,78.41,0,0,0,2.76,21.49,46.86,46.86,0,0,0,8.27,16.63,37,37,0,0,0,13.78,10.74,45.75,45.75,0,0,0,19.3,3.81q12.74,0,21.11-2.66a93.14,93.14,0,0,0,12.55-4.76l4.75,15.21a26.27,26.27,0,0,1-4.75,2.38,66.32,66.32,0,0,1-8.56,2.76,110,110,0,0,1-12,2.28A108.67,108.67,0,0,1,935,289.42Z"/><path class="cls-2" d="M1053.85,207.76a29.52,29.52,0,0,0-6.37-12,29.15,29.15,0,0,0-11.79-7.8q-7.32-2.74-18-2.75a98.57,98.57,0,0,0-17.3,1.42A54.73,54.73,0,0,0,989,189.6l2.09,14.64a53.83,53.83,0,0,1,9.8-2.57,83.84,83.84,0,0,1,15.3-1.23,26.45,26.45,0,0,1,11.12,2,17.37,17.37,0,0,1,6.75,5.33,19.86,19.86,0,0,1,3.43,7.6,40,40,0,0,1,1,8.65v5c-.51-.13-1.4-.32-2.66-.57s-2.76-.54-4.47-.86-3.52-.57-5.42-.76-3.74-.29-5.52-.29a72.65,72.65,0,0,0-16,1.72,41.84,41.84,0,0,0-13.31,5.32,26.56,26.56,0,0,0-9,9.51,28.16,28.16,0,0,0-3.33,14.07,34.31,34.31,0,0,0,2.86,14.64,24.76,24.76,0,0,0,8,9.79,34.53,34.53,0,0,0,12.17,5.42,65.14,65.14,0,0,0,15.4,1.71q5.9,0,11.88-.48t11.13-1q5.13-.57,9.22-1.24l6.37-1v-61.8A58.17,58.17,0,0,0,1053.85,207.76Zm-15.4,64.74a49.46,49.46,0,0,1-8.08,1c-3.24.19-6.94.29-11.13.29q-10.46,0-16.54-3.71t-6.08-13.21a13,13,0,0,1,2.47-8.27,17.54,17.54,0,0,1,6.18-4.95,26.09,26.09,0,0,1,8.18-2.37,66.77,66.77,0,0,1,8.46-.57,69.3,69.3,0,0,1,10.36.66,22.69,22.69,0,0,1,6.18,1.62Z"/><path class="cls-2" d="M1098.69,273.83q10.85,0,16.07-2.85a9.66,9.66,0,0,0,5.23-9.13,12.11,12.11,0,0,0-5.14-10.27q-5.13-3.79-16.92-8.55-5.7-2.28-10.93-4.66a37.84,37.84,0,0,1-9-5.61,24.4,24.4,0,0,1-6.09-7.8,24.91,24.91,0,0,1-2.28-11.21q0-13.12,9.7-20.82t26.43-7.7a75.56,75.56,0,0,1,8.36.47q4.19.48,7.8,1.14c2.41.45,4.53.92,6.37,1.43s3.26.95,4.28,1.33l-3.24,15.21a45.06,45.06,0,0,0-8.93-3.14,58.07,58.07,0,0,0-14.64-1.61A27.06,27.06,0,0,0,1092.8,203a9.78,9.78,0,0,0-5.52,9.23,12.52,12.52,0,0,0,1.24,5.7,13.1,13.1,0,0,0,3.8,4.47,32.14,32.14,0,0,0,6.37,3.71q3.81,1.69,9.13,3.61,7,2.66,12.55,5.23a39.12,39.12,0,0,1,9.41,6,22.93,22.93,0,0,1,6,8.27,30,30,0,0,1,2.09,11.88q0,13.68-10.17,20.72t-29,7q-13.11,0-20.53-2.19a104.07,104.07,0,0,1-10.08-3.33l3.23-15.21q3,1.14,9.7,3.43T1098.69,273.83Z"/><path class="cls-2" d="M1151.14,286.57V142.06l17.69-3V189.6a59.8,59.8,0,0,1,10.55-2.95,61.14,61.14,0,0,1,11.12-1q11.79,0,19.58,3.32a30.71,30.71,0,0,1,12.46,9.32,36.15,36.15,0,0,1,6.56,14.35,83.81,83.81,0,0,1,1.9,18.45v55.52h-17.68V234.85a83.87,83.87,0,0,0-1.24-15.59A26.32,26.32,0,0,0,1208,208.8a16.2,16.2,0,0,0-7.6-5.8,33.53,33.53,0,0,0-11.79-1.8,48.06,48.06,0,0,0-5.89.38c-2,.25-4,.54-5.8.85s-3.49.67-5,1a29.48,29.48,0,0,0-3.13,1v82.14Z"/></svg>