<svg id="Layer_1" data-name="Layer 1" xmlns="http://www.w3.org/2000/svg" viewBox="0 0 684 683"><defs><style>.cls-1{fill:#00cc45;}.cls-2{fill:#fff;}</style></defs><title>bch redesign</title><path class="cls-1" d="M50.73,640.73q-7.4,0-14.73-.46a103.17,103.17,0,0,1-15.26-2.14V550.89a129.57,129.57,0,0,1,13.64-1.75q7.4-.58,13.76-.59a93.86,93.86,0,0,1,15.77,1.24A37.35,37.35,0,0,1,76.31,554a22,22,0,0,1,8.11,7.85,23,23,0,0,1,2.92,12q0,10.77-10.38,17,8.57,3.24,11.68,8.82a25.37,25.37,0,0,1,3.12,12.6q0,14.15-10.32,21.29T50.73,640.73ZM40.48,584.9h9.86c6.24,0,10.69-.8,13.38-2.4s4-4.17,4-7.72-1.38-6.19-4.15-7.66-6.84-2.21-12.21-2.21c-1.73,0-3.59,0-5.58.07s-3.77.15-5.32.32Zm0,15.45v23.24q2.21.27,4.8.39c1.73.09,3.64.13,5.71.13q9.09,0,14.67-2.6t5.59-9.6q0-6.24-4.68-8.9T53.2,600.35Z"/><path class="cls-1" d="M121.75,551.54a10.61,10.61,0,0,1-3.44,8.37,12.32,12.32,0,0,1-16.23,0,11.9,11.9,0,0,1,0-16.74,12.32,12.32,0,0,1,16.23,0A10.61,10.61,0,0,1,121.75,551.54Zm-1.82,88H100.59V571.27h19.34Z"/><path class="cls-1" d="M131.35,554.27l19.34-3.12v20.12h23.24v16.1H150.69v24c0,4.07.72,7.31,2.14,9.73s4.31,3.64,8.64,3.64a36.86,36.86,0,0,0,6.42-.59,31.82,31.82,0,0,0,6-1.62l2.73,15.06a54.1,54.1,0,0,1-7.79,2.47,45.54,45.54,0,0,1-10.52,1A34.76,34.76,0,0,1,145.24,639a20.58,20.58,0,0,1-8.31-6,22.17,22.17,0,0,1-4.35-9.28,55,55,0,0,1-1.23-12.07Z"/><path class="cls-1" d="M177.7,605.42a40.27,40.27,0,0,1,2.4-14,32.58,32.58,0,0,1,18-19.15,36.45,36.45,0,0,1,14.8-2.85,47.86,47.86,0,0,1,10,1,48.85,48.85,0,0,1,8.82,2.79l-4,15.45a49.6,49.6,0,0,0-6-1.82,31.23,31.23,0,0,0-7.27-.78q-8.58,0-12.79,5.32t-4.22,14q0,9.21,4,14.28t13.82,5.06a47.71,47.71,0,0,0,7.53-.65,31.39,31.39,0,0,0,7.4-2.08l2.73,15.84a46,46,0,0,1-8.44,2.47,55.73,55.73,0,0,1-11.16,1,42,42,0,0,1-16.1-2.8,30.35,30.35,0,0,1-11.1-7.59,29.59,29.59,0,0,1-6.36-11.36A48.27,48.27,0,0,1,177.7,605.42Z"/><path class="cls-1" d="M300.38,605.28A44.37,44.37,0,0,1,298,620a32,32,0,0,1-6.75,11.42,30.22,30.22,0,0,1-10.58,7.34,35.33,35.33,0,0,1-13.83,2.6,34.94,34.94,0,0,1-13.69-2.6,30.22,30.22,0,0,1-10.58-7.34A33.27,33.27,0,0,1,235.73,620a42.18,42.18,0,0,1-2.47-14.74,40.77,40.77,0,0,1,2.53-14.67,33.45,33.45,0,0,1,7-11.29,31.62,31.62,0,0,1,10.65-7.27,34.28,34.28,0,0,1,13.43-2.59,34.62,34.62,0,0,1,13.57,2.59A30.85,30.85,0,0,1,291,579.32a33,33,0,0,1,6.88,11.29A41.89,41.89,0,0,1,300.38,605.28Zm-19.74,0q0-9-3.56-14.08a11.69,11.69,0,0,0-10.2-5.13,11.83,11.83,0,0,0-10.25,5.13Q253,596.33,253,605.28t3.64,14.22a11.73,11.73,0,0,0,10.25,5.26,11.6,11.6,0,0,0,10.2-5.26Q280.64,614.25,280.64,605.28Z"/><path class="cls-1" d="M330.36,551.54a10.58,10.58,0,0,1-3.44,8.37,12.31,12.31,0,0,1-16.22,0,11.9,11.9,0,0,1,0-16.74,12.31,12.31,0,0,1,16.22,0A10.58,10.58,0,0,1,330.36,551.54Zm-1.81,88H309.2V571.27h19.35Z"/><path class="cls-1" d="M340.62,573.61A107.94,107.94,0,0,1,353.34,571a104.82,104.82,0,0,1,16.36-1.24A39.67,39.67,0,0,1,384.17,572a21.78,21.78,0,0,1,9.16,6.42,25,25,0,0,1,4.8,9.87A52.6,52.6,0,0,1,399.56,601v38.56H380.21V603.34q0-9.35-2.46-13.24t-9.22-3.9c-1.38,0-2.85.07-4.41.2s-2.95.28-4.16.45v52.71H340.62Z"/><path class="cls-1" d="M453.31,642A46,46,0,0,1,436,638.88a36.64,36.64,0,0,1-13.37-9.08A41,41,0,0,1,414,615.06,60.67,60.67,0,0,1,411,595a54.4,54.4,0,0,1,3.44-20,43.37,43.37,0,0,1,9.28-14.74,39.13,39.13,0,0,1,13.63-9.08A44.26,44.26,0,0,1,454,548a59,59,0,0,1,10.06.78,62.39,62.39,0,0,1,7.79,1.82,37.3,37.3,0,0,1,5.38,2.07c1.39.7,2.34,1.22,2.86,1.56l-3.63,10.39a20.56,20.56,0,0,0-3.38-1.69c-1.47-.61-3.14-1.21-5-1.82a45.79,45.79,0,0,0-6.1-1.49,38.43,38.43,0,0,0-6.69-.59,32.18,32.18,0,0,0-12.85,2.47,26.66,26.66,0,0,0-9.74,7.14A32.33,32.33,0,0,0,426.5,580a49,49,0,0,0-2.14,15,53.32,53.32,0,0,0,1.88,14.67A32,32,0,0,0,431.89,621a25.21,25.21,0,0,0,9.41,7.34,31.28,31.28,0,0,0,13.18,2.6,48.4,48.4,0,0,0,14.41-1.82,62,62,0,0,0,8.56-3.25l3.25,10.39a18.67,18.67,0,0,1-3.25,1.62,43,43,0,0,1-5.84,1.88,71.33,71.33,0,0,1-8.18,1.56A74.11,74.11,0,0,1,453.31,642Z"/><path class="cls-1" d="M534.43,586.24a20.3,20.3,0,0,0-4.35-8.18,20,20,0,0,0-8.05-5.32,35.1,35.1,0,0,0-12.27-1.88,67.13,67.13,0,0,0-11.81,1,37.4,37.4,0,0,0-7.79,2l1.43,10a36.87,36.87,0,0,1,6.68-1.75,57.26,57.26,0,0,1,10.45-.85,18.06,18.06,0,0,1,7.6,1.37,11.9,11.9,0,0,1,4.61,3.63,13.61,13.61,0,0,1,2.33,5.19,27.37,27.37,0,0,1,.65,5.91v3.38c-.34-.09-.95-.22-1.81-.39l-3.06-.59c-1.17-.21-2.4-.39-3.7-.52a37.57,37.57,0,0,0-3.76-.19,49.51,49.51,0,0,0-10.91,1.17,28.59,28.59,0,0,0-9.08,3.63,18.11,18.11,0,0,0-6.17,6.49,19.32,19.32,0,0,0-2.27,9.61,23.38,23.38,0,0,0,2,10,16.83,16.83,0,0,0,5.45,6.68,23.47,23.47,0,0,0,8.31,3.7,44.33,44.33,0,0,0,10.51,1.17q4,0,8.12-.32t7.59-.72c2.34-.26,4.43-.54,6.3-.84l4.35-.72V596.69A39.71,39.71,0,0,0,534.43,586.24Zm-10.52,44.21a33.87,33.87,0,0,1-5.51.71q-3.31.2-7.6.2-7.14,0-11.29-2.54t-4.16-9a8.84,8.84,0,0,1,1.69-5.65,11.94,11.94,0,0,1,4.22-3.37,17.9,17.9,0,0,1,5.58-1.62,45.62,45.62,0,0,1,5.78-.39,47.23,47.23,0,0,1,7.07.45,15.79,15.79,0,0,1,4.22,1.1Z"/><path class="cls-1" d="M565.05,631.36q7.4,0,11-2a6.59,6.59,0,0,0,3.57-6.23,8.27,8.27,0,0,0-3.51-7c-2.33-1.73-6.19-3.68-11.55-5.85q-3.9-1.55-7.47-3.18a25.78,25.78,0,0,1-6.16-3.83,16.71,16.71,0,0,1-4.16-5.32,18.91,18.91,0,0,1,5.07-21.87q6.62-5.26,18-5.26a52,52,0,0,1,5.71.32c1.91.22,3.68.48,5.33.78s3.09.63,4.35,1,2.22.64,2.92.9L586,584.23a30.3,30.3,0,0,0-6.1-2.14,39.16,39.16,0,0,0-10-1.11,18.39,18.39,0,0,0-8.83,2,6.66,6.66,0,0,0-3.76,6.29,8.64,8.64,0,0,0,.84,3.9,9,9,0,0,0,2.6,3,21.42,21.42,0,0,0,4.35,2.53c1.73.78,3.8,1.6,6.23,2.47q4.8,1.82,8.57,3.57a26.68,26.68,0,0,1,6.42,4.09,15.55,15.55,0,0,1,4.09,5.64,20.39,20.39,0,0,1,1.43,8.12q0,9.35-6.94,14.15t-19.8,4.8q-9,0-14-1.49c-3.38-1-5.67-1.75-6.88-2.27l2.2-10.39c1.39.52,3.59,1.3,6.62,2.34A38.2,38.2,0,0,0,565.05,631.36Z"/><path class="cls-1" d="M600.86,640.05V541.39l12.07-2.08v34.53a42.35,42.35,0,0,1,14.8-2.72,34.33,34.33,0,0,1,13.38,2.27,20.88,20.88,0,0,1,8.5,6.36,24.68,24.68,0,0,1,4.48,9.8,57.22,57.22,0,0,1,1.3,12.59v37.91H643.31V604.74a57.84,57.84,0,0,0-.84-10.64,18,18,0,0,0-2.79-7.14,11,11,0,0,0-5.19-4,22.66,22.66,0,0,0-8-1.24,33.2,33.2,0,0,0-4,.26c-1.38.18-2.7.37-4,.59s-2.38.45-3.37.71a21.39,21.39,0,0,0-2.15.65v56.08Z"/><circle class="cls-2" cx="335.1" cy="301.31" r="170.31"/><path class="cls-1" d="M192.52,497.35H128.47a293.34,293.34,0,0,1,.73-410.21h65.33C126.41,138.87,89,206.44,89,292.22s37.35,153.41,105.22,205C193.85,497.71,193.11,497.34,192.52,497.35ZM548,87.14H484.56a3.47,3.47,0,0,0-2.25.28C550.42,139,587.7,206.81,587.65,292.49S550.24,445.92,482,497.42H548.7A293.33,293.33,0,0,0,548,87.14Zm21.57,209c-1.89,126.46-105.51,229.83-234.66,228.11-127-1.7-230.61-107-227.92-236.94C109.6,161.57,212.82,60,338.39,60.49,464.55,59.91,571.56,163.88,569.58,296.11Zm-119.82-3c-3.05-10.44-7.9-19.79-17.19-26.15-8.08-5.53-17.31-7.29-26.84-8-.86-.06-2.14.41-2.47-.62-.27-.8.87-1.35,1.46-1.93a40.27,40.27,0,0,0,12.19-28.23,51.66,51.66,0,0,0-5-20.57c-6.61-14.34-17.41-23-33.27-25.07-11.09-1.46-22.1-.47-33.12.54-4.29.4-4.28.42-5.38-3.72-3.07-11.52-5.61-23.17-8.95-34.62-.59-2-1.36-2.48-3.37-1.94-6.81,1.86-13.67,3.57-20.53,5.26-1.59.39-2.06,1.1-1.64,2.7,1.11,4.2,2.05,8.44,3.14,12.64,1.94,7.5,4.06,15,5.3,22.62.21,1.29.95,2.88-1.33,3.43-5.21,1.27-10.39,2.65-15.57,4.06-1.61.44-2.11-.28-2.39-1.68-.45-2.34-1-4.67-1.55-7q-3.63-14.61-7.33-29.22c-.24-1-.15-2.28-2-1.78q-11,2.92-22,5.61c-1.8.43-2,1.21-1.53,2.88,3.16,12.2,6.16,24.43,9.32,36.63.49,1.89.24,2.7-1.82,3.12-4.58.94-9.12,2.11-13.67,3.24q-16.35,4.08-32.69,8.23c-1,.25-2.53.1-2,2.13,2.11,7.63,4.19,15.26,6.08,23,.63,2.58,1.68,2.95,4.07,2.2,5.35-1.68,10.63-3.66,16.22-4.49,9.34-1.38,14.24,1.74,16.61,10.85,2.14,8.23,4.09,16.52,6.19,24.77,5.86,22.93,11,46,17.37,68.83,1.53,5.5,3.27,10.93,3.87,16.64.57,5.44-1,8.33-5.93,10.67a26.51,26.51,0,0,1-6.35,1.88c-3.76.74-7.62.94-11.27,2.21-1.33.46-2.13,1.07-2,2.74q1.23,13.62,2.25,27.24c.17,2.29,1,2.51,3.06,1.91,15.19-4.49,30.66-7.9,46.11-11.38,1.55-.35,2.16,0,2.47,1.49.61,2.91,1.36,5.8,2.05,8.7,2.32,9.77,4.59,19.55,7.51,29.17.29.94.32,2.2,1.91,1.67,7.19-2.44,14.76-3.38,22-5.44,1.34-.38,1.8-.84,1.41-2.31-1.28-4.94-2.38-9.93-3.62-14.88-1.88-7.51-4-15-5.52-22.57-.23-1.13-.81-2.3,1.1-2.73,4.07-.92,8.07-2.11,12.14-3,5.94-1.31,6-1.25,7.47,4.58,2.87,11.13,5.76,22.25,8.57,33.39.38,1.5.89,1.88,2.45,1.5,6.86-1.66,13.76-3.18,20.56-5.11,2.57-.73,3.06-1.64,2.34-4.23-3.2-11.57-6.49-23.12-8.64-34.94-.63-3.47-.67-3.46,2.7-4.67,7.7-2.76,15.37-5.58,22.78-9.06,10.36-4.86,20-10.67,26.85-20.21C453.54,328.36,455,311.2,449.76,293.13Zm-68.61-1.47a37.32,37.32,0,0,0-11.15-.88c-2,0-3.93-.16-5.87,0-13.79,1.32-27,5.18-40.32,8.81-1.19.33-1.73.72-1.29,2.11,5,16,8.22,32.47,12.48,48.67,1.26,4.79,1.28,4.81,5.93,3.63,11.7-3,23.59-5.35,34.72-10.23,7.45-3.26,14.6-7,19.61-13.77C406.52,314.76,399.6,295.94,381.15,291.66ZM363.35,254c10-10.16,8.22-25.63-3.81-33.42-5.77-3.74-12.18-4.56-18.84-4.37-12.29.47-23.92,4.1-35.61,7.45-1.45.41-1.24,1.36-1,2.4q5.31,23.27,11.69,46.25c.42,1.54,1.07,2,2.69,1.63a130.31,130.31,0,0,0,19-5.1C346.93,265.44,356.1,261.4,363.35,254Z"/></svg>