<?xml version="1.0" encoding="UTF-8" standalone="no"?>
<!-- Created with Inkscape (http://www.inkscape.org/) -->

<svg
   xmlns:dc="http://purl.org/dc/elements/1.1/"
   xmlns:cc="http://creativecommons.org/ns#"
   xmlns:rdf="http://www.w3.org/1999/02/22-rdf-syntax-ns#"
   xmlns:svg="http://www.w3.org/2000/svg"
   xmlns="http://www.w3.org/2000/svg"
   xmlns:sodipodi="http://sodipodi.sourceforge.net/DTD/sodipodi-0.dtd"
   xmlns:inkscape="http://www.inkscape.org/namespaces/inkscape"
   version="1.1"
   id="svg2"
   xml:space="preserve"
   width="847.02936"
   height="769.55603"
   viewBox="0 0 847.02936 769.55603"
   sodipodi:docname="bch redesign.svg"
   inkscape:version="0.92.1 r15371"><metadata
     id="metadata8"><rdf:RDF><cc:Work
         rdf:about=""><dc:format>image/svg+xml</dc:format><dc:type
           rdf:resource="http://purl.org/dc/dcmitype/StillImage" /><dc:title></dc:title></cc:Work></rdf:RDF></metadata><defs
     id="defs6"><clipPath
       clipPathUnits="userSpaceOnUse"
       id="clipPath18"><path
         d="M 310.99,546.815 C 203.9,547.232 115.875,460.606 113.656,353.394 v 0 C 111.362,242.607 199.705,152.777 308.038,151.33 v 0 c 110.138,-1.472 198.512,86.684 200.126,194.538 v 0 c 1.683,112.457 -89.059,200.955 -196.275,200.949 v 0 c -0.296,0 -0.603,-10e-4 -0.899,-0.002 M 275.833,433.384 c 4.413,1.201 8.836,2.38 13.28,3.462 v 0 c 1.945,0.474 1.307,1.826 1.129,2.926 v 0 c -1.058,6.533 -2.859,12.895 -4.516,19.288 v 0 c -0.93,3.584 -1.732,7.202 -2.677,10.781 v 0 c -0.362,1.372 0.043,1.97 1.397,2.304 v 0 c 5.85,1.443 11.697,2.905 17.512,4.486 v 0 c 1.715,0.466 2.364,0.089 2.872,-1.653 v 0 c 2.844,-9.764 5.017,-19.699 7.63,-29.521 v 0 c 0.942,-3.535 0.934,-3.515 4.587,-3.179 v 0 c 9.404,0.863 18.793,1.71 28.25,0.46 v 0 c 13.529,-1.789 22.734,-9.149 28.37,-21.374 v 0 c 2.557,-5.544 4.133,-11.301 4.291,-17.548 v 0 c -0.24,-9.332 -3.737,-17.375 -10.4,-24.07 v 0 c -0.496,-0.5 -1.466,-0.967 -1.244,-1.648 v 0 c 0.211,-0.648 0.859,-0.6 1.476,-0.552 v 0 c 0.222,0.016 0.439,0.033 0.63,0.018 v 0 c 8.132,-0.633 16.003,-2.14 22.896,-6.855 v 0 c 7.924,-5.421 12.054,-13.397 14.655,-22.303 v 0 c 4.504,-15.406 3.228,-30.04 -6.301,-43.405 v 0 c -5.801,-8.137 -14.06,-13.095 -22.896,-17.24 v 0 c -6.319,-2.966 -12.863,-5.371 -19.428,-7.723 v 0 c -2.871,-1.029 -2.84,-1.025 -2.301,-3.983 v 0 c 1.836,-10.085 4.64,-19.936 7.367,-29.799 v 0 c 0.612,-2.213 0.196,-2.988 -1.993,-3.607 v 0 c -5.803,-1.643 -11.683,-2.942 -17.538,-4.362 v 0 c -1.33,-0.323 -1.768,0.006 -2.09,1.281 v 0 c -2.395,9.503 -4.858,18.99 -7.309,28.479 v 0 c -1.283,4.972 -1.305,5.026 -6.365,3.906 v 0 c -3.472,-0.767 -6.889,-1.779 -10.358,-2.565 v 0 c -1.628,-0.369 -1.133,-1.367 -0.937,-2.333 v 0 c 1.306,-6.48 3.106,-12.838 4.709,-19.245 v 0 c 1.058,-4.225 1.994,-8.48 3.089,-12.695 v 0 c 0.325,-1.251 -0.065,-1.646 -1.204,-1.967 v 0 c -6.219,-1.756 -12.672,-2.56 -18.811,-4.636 v 0 c -1.349,-0.457 -1.379,0.614 -1.623,1.418 v 0 c -2.489,8.203 -4.431,16.548 -6.41,24.882 v 0 c -0.587,2.472 -1.225,4.932 -1.744,7.419 v 0 c -0.269,1.294 -0.786,1.568 -2.107,1.271 v 0 c -13.176,-2.967 -26.368,-5.874 -39.328,-9.711 v 0 c -1.724,-0.51 -2.461,-0.318 -2.606,1.634 v 0 c -0.573,7.748 -1.221,15.489 -1.921,23.227 v 0 c -0.128,1.425 0.556,1.946 1.691,2.34 v 0 c 3.115,1.081 6.406,1.255 9.608,1.884 v 0 c 1.857,0.365 3.694,0.783 5.414,1.607 v 0 c 4.169,1.993 5.544,4.46 5.06,9.094 v 0 c -0.507,4.868 -1.993,9.505 -3.3,14.191 v 0 c -5.419,19.445 -9.817,39.149 -14.812,58.702 v 0 c -1.796,7.034 -3.451,14.103 -5.278,21.128 v 0 c -2.019,7.767 -6.202,10.431 -14.164,9.252 v 0 c -4.772,-0.707 -9.274,-2.395 -13.837,-3.83 v 0 c -2.042,-0.642 -2.935,-0.32 -3.473,1.877 v 0 c -1.606,6.555 -3.387,13.069 -5.183,19.576 v 0 c -0.476,1.724 0.824,1.598 1.677,1.816 v 0 c 9.288,2.367 18.585,4.7 27.885,7.017 v 0 c 3.876,0.966 7.748,1.963 11.659,2.763 v 0 c 1.753,0.358 1.963,1.05 1.547,2.659 v 0 c -2.691,10.403 -5.254,20.838 -7.946,31.24 v 0 c -0.37,1.429 -0.232,2.086 1.301,2.46 v 0 c 6.28,1.532 12.545,3.118 18.79,4.781 v 0 c 1.586,0.423 1.512,-0.701 1.719,-1.519 v 0 c 2.105,-8.302 4.183,-16.609 6.246,-24.92 v 0 c 0.49,-1.973 0.936,-3.957 1.328,-5.951 v 0 c 0.188,-0.958 0.499,-1.544 1.326,-1.544 v 0 c 0.203,0 0.438,0.035 0.709,0.109 m 157.902,90.45 c 58.088,-43.958 89.882,-101.811 89.836,-174.882 v 0 c -0.045,-73.046 -31.904,-130.85 -90.067,-174.766 v 0 h 1.817 c 18.344,0 36.688,0 55.031,-0.001 v 0 c 43.961,45.091 71.058,106.701 71.058,174.65 v 0 c 0,68.252 -27.337,130.109 -71.645,175.253 v 0 c -18.035,-0.003 -36.071,-0.005 -54.108,-0.008 v 0 c -0.287,0 -0.584,0.045 -0.888,0.045 v 0 c -0.338,0 -0.685,-0.056 -1.034,-0.291 m -247.791,0.239 H 132.592 C 88.294,478.931 60.962,417.08 60.962,348.835 v 0 c 0,-67.923 27.076,-129.513 71.009,-174.599 v 0 c 18.206,0.002 36.412,0.005 54.617,0.01 v 0 c 0.507,0 1.141,-0.308 1.411,0.104 v 0 c -57.881,44.003 -89.774,101.639 -89.74,174.834 v 0 c 0.035,73.161 31.948,130.783 90.049,174.889 v 0 z M 312.961,413.976 c -10.479,-0.403 -20.398,-3.496 -30.368,-6.352 v 0 c -1.236,-0.355 -1.055,-1.165 -0.853,-2.052 v 0 c 3.02,-13.223 6.336,-26.37 9.968,-39.438 v 0 c 0.366,-1.317 0.915,-1.673 2.299,-1.394 v 0 c 5.488,1.105 10.908,2.438 16.172,4.345 v 0 c 8.098,2.935 15.923,6.388 22.106,12.657 v 0 c 8.546,8.666 7.007,21.858 -3.255,28.508 v 0 c -4.493,2.912 -9.443,3.747 -14.598,3.747 v 0 c -0.489,0 -0.979,-0.007 -1.471,-0.021 m 24.991,-63.559 c -1.669,0 -3.351,0.136 -5.005,-0.022 v 0 c -11.761,-1.124 -23.053,-4.416 -34.387,-7.513 v 0 c -1.015,-0.277 -1.477,-0.617 -1.104,-1.801 v 0 c 4.3,-13.642 7.017,-27.692 10.649,-41.507 v 0 c 1.075,-4.088 1.088,-4.105 5.058,-3.091 v 0 c 9.976,2.547 20.116,4.562 29.609,8.717 v 0 c 6.352,2.78 12.454,5.959 16.727,11.749 v 0 c 9.601,13.011 3.7,29.066 -12.036,32.709 v 0 c -2.399,0.555 -4.82,0.839 -7.262,0.839 v 0 c -0.748,0 -1.497,-0.027 -2.249,-0.08"
         id="path16"
         inkscape:connector-curvature="0" /></clipPath><linearGradient
       x1="0"
       y1="0"
       x2="1"
       y2="0"
       gradientUnits="userSpaceOnUse"
       gradientTransform="matrix(500.44867,0,0,-500.44867,60.961639,349.0643)"
       spreadMethod="pad"
       id="linearGradient30"><stop
         style="stop-opacity:1;stop-color:#54ae6f"
         offset="0"
         id="stop24" /><stop
         style="stop-opacity:1;stop-color:#00aa4f"
         offset="0.488764"
         id="stop26" /><stop
         style="stop-opacity:1;stop-color:#007736"
         offset="1"
         id="stop28" /></linearGradient><clipPath
       clipPathUnits="userSpaceOnUse"
       id="clipPath40"><path
         d="M 0,577.167 H 635.272 V 0 H 0 Z"
         id="path38"
         inkscape:connector-curvature="0" /></clipPath></defs><sodipodi:namedview
     pagecolor="#ffffff"
     bordercolor="#666666"
     borderopacity="1"
     objecttolerance="10"
     gridtolerance="10"
     guidetolerance="10"
     inkscape:pageopacity="0"
     inkscape:pageshadow="2"
     inkscape:window-width="958"
     inkscape:window-height="1064"
     id="namedview4"
     showgrid="false"
     inkscape:zoom="0.61334066"
     inkscape:cx="399.44867"
     inkscape:cy="380.33736"
     inkscape:window-x="0"
     inkscape:window-y="14"
     inkscape:window-maximized="0"
     inkscape:current-layer="g10" /><g
     id="g10"
     inkscape:groupmode="layer"
     inkscape:label="bch redesign"
     transform="matrix(1.3333333,0,0,-1.3333333,0,769.556)"><g
       id="g12"><g
         id="g14"
         clip-path="url(#clipPath18)"><g
           id="g20"><g
             id="g22"><path
               d="M 310.99,546.815 C 203.9,547.232 115.875,460.606 113.656,353.394 v 0 C 111.362,242.607 199.705,152.777 308.038,151.33 v 0 c 110.138,-1.472 198.512,86.684 200.126,194.538 v 0 c 1.683,112.457 -89.059,200.955 -196.275,200.949 v 0 c -0.296,0 -0.603,-10e-4 -0.899,-0.002 M 275.833,433.384 c 4.413,1.201 8.836,2.38 13.28,3.462 v 0 c 1.945,0.474 1.307,1.826 1.129,2.926 v 0 c -1.058,6.533 -2.859,12.895 -4.516,19.288 v 0 c -0.93,3.584 -1.732,7.202 -2.677,10.781 v 0 c -0.362,1.372 0.043,1.97 1.397,2.304 v 0 c 5.85,1.443 11.697,2.905 17.512,4.486 v 0 c 1.715,0.466 2.364,0.089 2.872,-1.653 v 0 c 2.844,-9.764 5.017,-19.699 7.63,-29.521 v 0 c 0.942,-3.535 0.934,-3.515 4.587,-3.179 v 0 c 9.404,0.863 18.793,1.71 28.25,0.46 v 0 c 13.529,-1.789 22.734,-9.149 28.37,-21.374 v 0 c 2.557,-5.544 4.133,-11.301 4.291,-17.548 v 0 c -0.24,-9.332 -3.737,-17.375 -10.4,-24.07 v 0 c -0.496,-0.5 -1.466,-0.967 -1.244,-1.648 v 0 c 0.211,-0.648 0.859,-0.6 1.476,-0.552 v 0 c 0.222,0.016 0.439,0.033 0.63,0.018 v 0 c 8.132,-0.633 16.003,-2.14 22.896,-6.855 v 0 c 7.924,-5.421 12.054,-13.397 14.655,-22.303 v 0 c 4.504,-15.406 3.228,-30.04 -6.301,-43.405 v 0 c -5.801,-8.137 -14.06,-13.095 -22.896,-17.24 v 0 c -6.319,-2.966 -12.863,-5.371 -19.428,-7.723 v 0 c -2.871,-1.029 -2.84,-1.025 -2.301,-3.983 v 0 c 1.836,-10.085 4.64,-19.936 7.367,-29.799 v 0 c 0.612,-2.213 0.196,-2.988 -1.993,-3.607 v 0 c -5.803,-1.643 -11.683,-2.942 -17.538,-4.362 v 0 c -1.33,-0.323 -1.768,0.006 -2.09,1.281 v 0 c -2.395,9.503 -4.858,18.99 -7.309,28.479 v 0 c -1.283,4.972 -1.305,5.026 -6.365,3.906 v 0 c -3.472,-0.767 -6.889,-1.779 -10.358,-2.565 v 0 c -1.628,-0.369 -1.133,-1.367 -0.937,-2.333 v 0 c 1.306,-6.48 3.106,-12.838 4.709,-19.245 v 0 c 1.058,-4.225 1.994,-8.48 3.089,-12.695 v 0 c 0.325,-1.251 -0.065,-1.646 -1.204,-1.967 v 0 c -6.219,-1.756 -12.672,-2.56 -18.811,-4.636 v 0 c -1.349,-0.457 -1.379,0.614 -1.623,1.418 v 0 c -2.489,8.203 -4.431,16.548 -6.41,24.882 v 0 c -0.587,2.472 -1.225,4.932 -1.744,7.419 v 0 c -0.269,1.294 -0.786,1.568 -2.107,1.271 v 0 c -13.176,-2.967 -26.368,-5.874 -39.328,-9.711 v 0 c -1.724,-0.51 -2.461,-0.318 -2.606,1.634 v 0 c -0.573,7.748 -1.221,15.489 -1.921,23.227 v 0 c -0.128,1.425 0.556,1.946 1.691,2.34 v 0 c 3.115,1.081 6.406,1.255 9.608,1.884 v 0 c 1.857,0.365 3.694,0.783 5.414,1.607 v 0 c 4.169,1.993 5.544,4.46 5.06,9.094 v 0 c -0.507,4.868 -1.993,9.505 -3.3,14.191 v 0 c -5.419,19.445 -9.817,39.149 -14.812,58.702 v 0 c -1.796,7.034 -3.451,14.103 -5.278,21.128 v 0 c -2.019,7.767 -6.202,10.431 -14.164,9.252 v 0 c -4.772,-0.707 -9.274,-2.395 -13.837,-3.83 v 0 c -2.042,-0.642 -2.935,-0.32 -3.473,1.877 v 0 c -1.606,6.555 -3.387,13.069 -5.183,19.576 v 0 c -0.476,1.724 0.824,1.598 1.677,1.816 v 0 c 9.288,2.367 18.585,4.7 27.885,7.017 v 0 c 3.876,0.966 7.748,1.963 11.659,2.763 v 0 c 1.753,0.358 1.963,1.05 1.547,2.659 v 0 c -2.691,10.403 -5.254,20.838 -7.946,31.24 v 0 c -0.37,1.429 -0.232,2.086 1.301,2.46 v 0 c 6.28,1.532 12.545,3.118 18.79,4.781 v 0 c 1.586,0.423 1.512,-0.701 1.719,-1.519 v 0 c 2.105,-8.302 4.183,-16.609 6.246,-24.92 v 0 c 0.49,-1.973 0.936,-3.957 1.328,-5.951 v 0 c 0.188,-0.958 0.499,-1.544 1.326,-1.544 v 0 c 0.203,0 0.438,0.035 0.709,0.109 m 157.902,90.45 c 58.088,-43.958 89.882,-101.811 89.836,-174.882 v 0 c -0.045,-73.046 -31.904,-130.85 -90.067,-174.766 v 0 h 1.817 c 18.344,0 36.688,0 55.031,-0.001 v 0 c 43.961,45.091 71.058,106.701 71.058,174.65 v 0 c 0,68.252 -27.337,130.109 -71.645,175.253 v 0 c -18.035,-0.003 -36.071,-0.005 -54.108,-0.008 v 0 c -0.287,0 -0.584,0.045 -0.888,0.045 v 0 c -0.338,0 -0.685,-0.056 -1.034,-0.291 m -247.791,0.239 H 132.592 C 88.294,478.931 60.962,417.08 60.962,348.835 v 0 c 0,-67.923 27.076,-129.513 71.009,-174.599 v 0 c 18.206,0.002 36.412,0.005 54.617,0.01 v 0 c 0.507,0 1.141,-0.308 1.411,0.104 v 0 c -57.881,44.003 -89.774,101.639 -89.74,174.834 v 0 c 0.035,73.161 31.948,130.783 90.049,174.889 v 0 z M 312.961,413.976 c -10.479,-0.403 -20.398,-3.496 -30.368,-6.352 v 0 c -1.236,-0.355 -1.055,-1.165 -0.853,-2.052 v 0 c 3.02,-13.223 6.336,-26.37 9.968,-39.438 v 0 c 0.366,-1.317 0.915,-1.673 2.299,-1.394 v 0 c 5.488,1.105 10.908,2.438 16.172,4.345 v 0 c 8.098,2.935 15.923,6.388 22.106,12.657 v 0 c 8.546,8.666 7.007,21.858 -3.255,28.508 v 0 c -4.493,2.912 -9.443,3.747 -14.598,3.747 v 0 c -0.489,0 -0.979,-0.007 -1.471,-0.021 m 24.991,-63.559 c -1.669,0 -3.351,0.136 -5.005,-0.022 v 0 c -11.761,-1.124 -23.053,-4.416 -34.387,-7.513 v 0 c -1.015,-0.277 -1.477,-0.617 -1.104,-1.801 v 0 c 4.3,-13.642 7.017,-27.692 10.649,-41.507 v 0 c 1.075,-4.088 1.088,-4.105 5.058,-3.091 v 0 c 9.976,2.547 20.116,4.562 29.609,8.717 v 0 c 6.352,2.78 12.454,5.959 16.727,11.749 v 0 c 9.601,13.011 3.7,29.066 -12.036,32.709 v 0 c -2.399,0.555 -4.82,0.839 -7.262,0.839 v 0 c -0.748,0 -1.497,-0.027 -2.249,-0.08"
               style="fill:url(#linearGradient30);stroke:none"
               id="path32"
               inkscape:connector-curvature="0" /></g></g></g></g><g
       id="g34"><g
         id="g36"
         clip-path="url(#clipPath40)"><g
           id="g42"
           transform="translate(56.9227,86.3977)"><path
             d="m 0,0 v -19.819 c 1.254,-0.148 2.62,-0.259 4.097,-0.332 1.477,-0.074 3.1,-0.111 4.871,-0.111 5.166,0 9.337,0.738 12.512,2.216 3.172,1.475 4.761,4.206 4.761,8.192 0,3.543 -1.328,6.071 -3.986,7.585 C 19.598,-0.757 15.795,0 10.851,0 Z m 0,13.176 h 8.416 c 5.314,0 9.115,0.681 11.403,2.049 2.287,1.363 3.432,3.559 3.432,6.586 0,3.1 -1.181,5.277 -3.543,6.533 -2.362,1.253 -5.831,1.881 -10.406,1.881 C 7.823,30.225 6.237,30.208 4.54,30.17 2.841,30.132 1.329,30.04 0,29.894 Z m 8.748,-47.609 c -4.208,0 -8.398,0.13 -12.566,0.388 -4.173,0.259 -8.509,0.866 -13.011,1.826 v 74.403 c 3.543,0.663 7.419,1.163 11.626,1.494 4.208,0.332 8.12,0.498 11.736,0.498 4.872,0 9.355,-0.351 13.452,-1.051 4.097,-0.703 7.62,-1.902 10.574,-3.598 2.951,-1.699 5.259,-3.931 6.92,-6.699 1.66,-2.769 2.491,-6.182 2.491,-10.241 0,-6.129 -2.954,-10.962 -8.858,-14.504 4.872,-1.846 8.193,-4.356 9.964,-7.529 1.772,-3.174 2.659,-6.754 2.659,-10.74 0,-8.045 -2.935,-14.099 -8.803,-18.157 -5.868,-4.061 -14.598,-6.09 -26.184,-6.09"
             style="fill:#000000;fill-opacity:1;fill-rule:nonzero;stroke:none"
             id="path44"
             inkscape:connector-curvature="0" /></g><path
           d="m 124.683,52.961 h -16.497 v 58.238 h 16.497 z m 1.549,75.067 c 0,-3.028 -0.979,-5.408 -2.934,-7.142 -1.957,-1.735 -4.263,-2.601 -6.92,-2.601 -2.657,0 -4.965,0.866 -6.92,2.601 -1.956,1.734 -2.934,4.114 -2.934,7.142 0,3.025 0.978,5.406 2.934,7.14 1.955,1.735 4.263,2.602 6.92,2.602 2.657,0 4.963,-0.867 6.92,-2.602 1.955,-1.734 2.934,-4.115 2.934,-7.14"
           style="fill:#000000;fill-opacity:1;fill-rule:nonzero;stroke:none"
           id="path46"
           inkscape:connector-curvature="0" /><g
           id="g48"
           transform="translate(134.4222,125.7024)"><path
             d="m 0,0 16.497,2.657 v -17.16 h 19.819 v -13.73 H 16.497 v -20.483 c 0,-3.47 0.608,-6.238 1.826,-8.303 1.219,-2.067 3.672,-3.1 7.363,-3.1 1.771,0 3.599,0.166 5.481,0.498 1.881,0.331 3.598,0.792 5.149,1.385 l 2.324,-12.845 c -1.993,-0.813 -4.207,-1.513 -6.643,-2.103 -2.435,-0.589 -5.426,-0.885 -8.968,-0.885 -4.503,0 -8.231,0.608 -11.183,1.826 -2.951,1.219 -5.314,2.914 -7.085,5.093 -1.772,2.176 -3.009,4.817 -3.709,7.917 C 0.35,-56.133 0,-52.702 0,-48.937 Z"
             style="fill:#000000;fill-opacity:1;fill-rule:nonzero;stroke:none"
             id="path50"
             inkscape:connector-curvature="0" /></g><g
           id="g52"
           transform="translate(173.9491,82.0804)"><path
             d="m 0,0 c 0,4.206 0.681,8.174 2.048,11.902 1.365,3.725 3.339,6.975 5.923,9.743 2.584,2.768 5.719,4.963 9.411,6.588 3.69,1.622 7.898,2.435 12.622,2.435 3.1,0 5.941,-0.277 8.526,-0.831 2.581,-0.552 5.092,-1.346 7.529,-2.38 L 42.625,14.282 c -1.549,0.59 -3.248,1.107 -5.092,1.55 -1.845,0.442 -3.913,0.665 -6.2,0.665 -4.871,0 -8.509,-1.514 -10.905,-4.54 C 18.028,8.93 16.829,4.944 16.829,0 c 0,-5.242 1.124,-9.3 3.377,-12.179 2.251,-2.878 6.18,-4.318 11.791,-4.318 1.993,0 4.133,0.184 6.422,0.553 2.287,0.368 4.39,0.96 6.311,1.773 l 2.324,-13.508 c -1.92,-0.813 -4.318,-1.512 -7.196,-2.105 -2.879,-0.59 -6.053,-0.885 -9.522,-0.885 -5.314,0 -9.892,0.794 -13.728,2.381 -3.839,1.586 -6.996,3.744 -9.467,6.477 -2.474,2.729 -4.281,5.958 -5.426,9.686 C 0.57,-8.398 0,-4.356 0,0"
             style="fill:#000000;fill-opacity:1;fill-rule:nonzero;stroke:none"
             id="path54"
             inkscape:connector-curvature="0" /></g><g
           id="g56"
           transform="translate(261.7469,82.1912)"><path
             d="m 0,0 c 0,5.092 -1.015,9.096 -3.043,12.012 -2.033,2.915 -4.928,4.374 -8.692,4.374 -3.765,0 -6.681,-1.459 -8.747,-4.374 C -22.55,9.096 -23.583,5.092 -23.583,0 c 0,-5.093 1.033,-9.135 3.101,-12.125 2.066,-2.988 4.982,-4.483 8.747,-4.483 3.764,0 6.659,1.495 8.692,4.483 C -1.015,-9.135 0,-5.093 0,0 m 16.83,0 c 0,-4.578 -0.665,-8.767 -1.994,-12.567 -1.328,-3.802 -3.248,-7.049 -5.757,-9.743 -2.51,-2.696 -5.518,-4.779 -9.023,-6.255 -3.507,-1.477 -7.438,-2.215 -11.791,-2.215 -4.282,0 -8.176,0.738 -11.682,2.215 -3.505,1.476 -6.514,3.559 -9.022,6.255 -2.511,2.694 -4.468,5.941 -5.869,9.743 -1.402,3.8 -2.103,7.989 -2.103,12.567 0,4.575 0.72,8.746 2.16,12.511 1.438,3.764 3.431,6.975 5.978,9.632 2.545,2.657 5.571,4.723 9.079,6.2 3.504,1.475 7.324,2.214 11.459,2.214 4.207,0 8.063,-0.739 11.569,-2.214 3.506,-1.477 6.514,-3.543 9.023,-6.2 2.509,-2.657 4.466,-5.868 5.868,-9.632 C 16.126,8.746 16.83,4.575 16.83,0"
             style="fill:#000000;fill-opacity:1;fill-rule:nonzero;stroke:none"
             id="path58"
             inkscape:connector-curvature="0" /></g><path
           d="m 302.601,52.961 h -16.497 v 58.238 h 16.497 z m 1.549,75.067 c 0,-3.028 -0.979,-5.408 -2.934,-7.142 -1.957,-1.735 -4.263,-2.601 -6.92,-2.601 -2.657,0 -4.965,0.866 -6.92,2.601 -1.956,1.734 -2.934,4.114 -2.934,7.142 0,3.025 0.978,5.406 2.934,7.14 1.955,1.735 4.263,2.602 6.92,2.602 2.657,0 4.963,-0.867 6.92,-2.602 1.955,-1.734 2.934,-4.115 2.934,-7.14"
           style="fill:#000000;fill-opacity:1;fill-rule:nonzero;stroke:none"
           id="path60"
           inkscape:connector-curvature="0" /><g
           id="g62"
           transform="translate(312.8959,109.2054)"><path
             d="m 0,0 c 2.804,0.812 6.421,1.567 10.849,2.269 4.429,0.701 9.079,1.053 13.951,1.053 4.944,0 9.06,-0.647 12.345,-1.939 3.284,-1.291 5.885,-3.117 7.806,-5.48 1.918,-2.362 3.283,-5.167 4.096,-8.414 0.812,-3.248 1.218,-6.865 1.218,-10.851 V -56.244 H 33.768 v 30.89 c 0,5.314 -0.702,9.078 -2.103,11.294 -1.404,2.214 -4.024,3.321 -7.862,3.321 -1.18,0 -2.434,-0.055 -3.763,-0.166 -1.329,-0.112 -2.511,-0.241 -3.543,-0.388 V -56.244 H 0 Z"
             style="fill:#000000;fill-opacity:1;fill-rule:nonzero;stroke:none"
             id="path64"
             inkscape:connector-curvature="0" /></g><g
           id="g66"
           transform="translate(408.9999,50.8792)"><path
             d="m 0,0 c -5.39,0 -10.297,0.886 -14.726,2.657 -4.427,1.772 -8.231,4.355 -11.404,7.749 -3.174,3.395 -5.628,7.585 -7.362,12.568 -1.735,4.982 -2.602,10.683 -2.602,17.105 0,6.422 0.978,12.123 2.935,17.106 1.953,4.982 4.595,9.171 7.915,12.565 3.322,3.395 7.196,5.98 11.625,7.751 4.429,1.771 9.152,2.657 14.173,2.657 3.173,0 6.034,-0.22 8.58,-0.663 2.547,-0.443 4.761,-0.961 6.643,-1.551 1.882,-0.591 3.412,-1.182 4.594,-1.771 1.181,-0.591 1.994,-1.034 2.437,-1.329 l -3.1,-8.857 c -0.665,0.443 -1.625,0.921 -2.88,1.44 -1.256,0.515 -2.676,1.032 -4.263,1.549 -1.586,0.515 -3.32,0.942 -5.203,1.274 -1.882,0.332 -3.784,0.497 -5.702,0.497 -4.059,0 -7.714,-0.702 -10.96,-2.103 -3.25,-1.402 -6.017,-3.432 -8.304,-6.089 -2.289,-2.657 -4.041,-5.887 -5.26,-9.688 -1.217,-3.802 -1.826,-8.065 -1.826,-12.788 0,-4.578 0.535,-8.746 1.605,-12.511 1.069,-3.765 2.675,-6.994 4.817,-9.688 2.14,-2.695 4.815,-4.779 8.026,-6.255 3.211,-1.478 6.957,-2.214 11.239,-2.214 4.943,0 9.041,0.516 12.289,1.549 3.246,1.033 5.683,1.956 7.308,2.769 L 23.36,4.872 C 22.844,4.501 21.922,4.041 20.594,3.487 19.265,2.934 17.604,2.398 15.611,1.883 13.617,1.366 11.292,0.923 8.635,0.553 5.978,0.185 3.1,0 0,0"
             style="fill:#000000;fill-opacity:1;fill-rule:nonzero;stroke:none"
             id="path68"
             inkscape:connector-curvature="0" /></g><g
           id="g70"
           transform="translate(469.2137,60.7332)"><path
             d="m 0,0 c -1.256,-0.296 -2.822,-0.499 -4.704,-0.609 -1.882,-0.111 -4.042,-0.167 -6.477,-0.167 -4.061,0 -7.272,0.72 -9.632,2.159 -2.364,1.44 -3.543,4.004 -3.543,7.695 0,1.993 0.479,3.599 1.439,4.817 0.958,1.217 2.158,2.175 3.598,2.879 1.439,0.7 3.026,1.161 4.761,1.383 1.733,0.221 3.377,0.332 4.926,0.332 2.361,0 4.374,-0.129 6.034,-0.387 1.661,-0.26 2.861,-0.573 3.598,-0.942 z m 8.969,37.699 c -0.739,2.693 -1.975,5.018 -3.709,6.974 -1.735,1.955 -4.025,3.47 -6.864,4.54 -2.842,1.07 -6.33,1.606 -10.463,1.606 -3.618,0 -6.975,-0.277 -10.076,-0.831 -3.099,-0.554 -5.314,-1.126 -6.642,-1.716 l 1.218,-8.525 c 1.254,0.516 3.156,1.013 5.702,1.495 2.546,0.478 5.516,0.719 8.912,0.719 2.658,0 4.816,-0.387 6.476,-1.162 1.663,-0.776 2.971,-1.81 3.931,-3.1 0.959,-1.293 1.623,-2.768 1.994,-4.428 C -0.185,31.609 0,29.929 0,28.232 v -2.878 c -0.294,0.072 -0.812,0.184 -1.549,0.332 -0.739,0.146 -1.605,0.314 -2.602,0.497 -0.997,0.184 -2.048,0.334 -3.155,0.444 -1.108,0.11 -2.178,0.166 -3.212,0.166 -3.247,0 -6.348,-0.333 -9.299,-0.996 -2.954,-0.665 -5.537,-1.699 -7.75,-3.1 -2.215,-1.403 -3.969,-3.25 -5.26,-5.537 -1.292,-2.288 -1.938,-5.019 -1.938,-8.192 0,-3.322 0.554,-6.164 1.662,-8.525 1.107,-2.364 2.658,-4.263 4.65,-5.702 1.993,-1.44 4.354,-2.491 7.085,-3.157 2.73,-0.663 5.721,-0.995 8.969,-0.995 2.287,0 4.593,0.093 6.92,0.277 2.325,0.185 4.484,0.386 6.476,0.609 1.994,0.22 3.781,0.459 5.371,0.719 1.586,0.258 2.822,0.46 3.708,0.609 v 35.983 c 0,3.248 -0.37,6.217 -1.107,8.913"
             style="fill:#000000;fill-opacity:1;fill-rule:nonzero;stroke:none"
             id="path72"
             inkscape:connector-curvature="0" /></g><g
           id="g74"
           transform="translate(504.2968,59.9568)"><path
             d="m 0,0 c 4.208,0 7.324,0.554 9.356,1.662 2.029,1.107 3.043,2.878 3.043,5.314 0,2.508 -0.995,4.502 -2.988,5.978 -1.992,1.477 -5.277,3.137 -9.854,4.983 -2.214,0.885 -4.336,1.789 -6.366,2.713 -2.031,0.921 -3.784,2.01 -5.259,3.266 -1.477,1.254 -2.658,2.768 -3.543,4.54 -0.886,1.771 -1.328,3.947 -1.328,6.531 0,5.094 1.881,9.134 5.645,12.123 3.766,2.991 8.895,4.485 15.391,4.485 1.623,0 3.246,-0.093 4.871,-0.277 1.624,-0.185 3.137,-0.407 4.54,-0.665 1.401,-0.259 2.638,-0.536 3.709,-0.829 1.069,-0.297 1.899,-0.554 2.491,-0.775 L 17.825,40.19 c -1.106,0.591 -2.843,1.2 -5.203,1.828 -2.364,0.627 -5.203,0.94 -8.525,0.94 -2.879,0 -5.389,-0.571 -7.529,-1.714 -2.141,-1.147 -3.211,-2.934 -3.211,-5.371 0,-1.256 0.239,-2.362 0.72,-3.322 0.479,-0.96 1.217,-1.826 2.214,-2.601 0.997,-0.775 2.232,-1.494 3.709,-2.159 1.475,-0.664 3.246,-1.368 5.314,-2.104 2.73,-1.035 5.166,-2.048 7.308,-3.045 2.14,-0.996 3.967,-2.158 5.481,-3.488 1.511,-1.328 2.674,-2.932 3.487,-4.815 0.811,-1.882 1.218,-4.19 1.218,-6.92 0,-5.314 -1.976,-9.338 -5.923,-12.068 C 12.935,-7.38 7.308,-8.746 0,-8.746 c -5.092,0 -9.079,0.425 -11.957,1.274 -2.88,0.847 -4.836,1.494 -5.868,1.937 l 1.882,8.857 c 1.179,-0.443 3.061,-1.108 5.646,-1.993 C -7.714,0.443 -4.282,0 0,0"
             style="fill:#000000;fill-opacity:1;fill-rule:nonzero;stroke:none"
             id="path76"
             inkscape:connector-curvature="0" /></g><g
           id="g78"
           transform="translate(534.8397,52.5398)"><path
             d="m 0,0 v 84.145 l 10.297,1.772 V 56.466 c 1.918,0.736 3.966,1.309 6.144,1.715 2.176,0.404 4.336,0.609 6.478,0.609 4.575,0 8.375,-0.647 11.402,-1.937 3.027,-1.292 5.444,-3.101 7.254,-5.426 1.807,-2.323 3.08,-5.111 3.819,-8.358 0.737,-3.249 1.107,-6.829 1.107,-10.739 V 0 H 36.204 v 30.115 c 0,3.543 -0.24,6.568 -0.72,9.078 -0.481,2.509 -1.272,4.54 -2.38,6.091 -1.108,1.549 -2.584,2.673 -4.428,3.377 -1.846,0.7 -4.136,1.051 -6.865,1.051 -1.107,0 -2.251,-0.075 -3.432,-0.222 -1.182,-0.148 -2.308,-0.314 -3.377,-0.498 -1.071,-0.185 -2.03,-0.388 -2.878,-0.609 -0.85,-0.222 -1.459,-0.407 -1.827,-0.553 l 0,-47.83 z"
             style="fill:#000000;fill-opacity:1;fill-rule:nonzero;stroke:none"
             id="path80"
             inkscape:connector-curvature="0" /></g></g></g></g></svg>