<svg id="Layer_1" data-name="Layer 1" xmlns="http://www.w3.org/2000/svg" xmlns:xlink="http://www.w3.org/1999/xlink" viewBox="0 0 635.27 577.17"><defs><style>.cls-1{fill:url(#Foliage_2);}</style><linearGradient id="Foliage_2" x1="5.96" y1="288.58" x2="628.34" y2="288.58" gradientUnits="userSpaceOnUse"><stop offset="0" stop-color="#54ae6f"/><stop offset="0.49" stop-color="#00aa4f"/><stop offset="1" stop-color="#007736"/></linearGradient></defs><title>bch redesign</title><path class="cls-1" d="M162.2,506l-67.93,0A311.13,311.13,0,0,1,95,70.93h69.29c-72.25,54.86-111.94,126.52-112,217.5S92,451.14,164,505.86C163.61,506.38,162.83,506,162.2,506Zm377-435.07H472a3.69,3.69,0,0,0-2.39.3C541.8,125.9,581.34,197.85,581.28,288.72s-39.68,162.73-112,217.35H540a311.11,311.11,0,0,0-.73-435.15Zm22.88,221.64c-2,134.13-111.91,243.76-248.88,241.93C178.51,532.69,68.64,421,71.49,283.2,74.25,149.87,183.73,42.13,316.91,42.65,450.73,42,564.22,152.32,562.12,292.56ZM435,289.4c-3.24-11.08-8.37-21-18.23-27.74-8.57-5.86-18.36-7.73-28.47-8.52-.9-.07-2.26.43-2.62-.67-.28-.84.93-1.42,1.55-2a42.71,42.71,0,0,0,12.93-29.94,54.6,54.6,0,0,0-5.33-21.82c-7-15.21-18.46-24.36-35.29-26.58-11.76-1.56-23.44-.51-35.13.57-4.54.42-4.53.44-5.7-4-3.25-12.21-6-24.57-9.49-36.71-.63-2.17-1.44-2.63-3.58-2.06-7.23,2-14.5,3.79-21.77,5.58-1.69.42-2.19,1.16-1.74,2.87,1.17,4.45,2.17,9,3.33,13.41,2.06,8,4.3,15.86,5.61,24,.23,1.37,1,3-1.4,3.64-5.53,1.35-11,2.81-16.52,4.31-1.71.46-2.24-.3-2.53-1.79-.48-2.48-1-4.94-1.65-7.4q-3.84-15.5-7.77-31c-.25-1-.16-2.41-2.13-1.89q-11.66,3.1-23.37,5.95c-1.91.46-2.08,1.28-1.62,3.06,3.35,12.93,6.54,25.91,9.88,38.85.52,2,.26,2.86-1.92,3.31-4.87,1-9.68,2.23-14.5,3.43q-17.35,4.32-34.68,8.73c-1.06.27-2.68.11-2.09,2.26,2.24,8.09,4.45,16.19,6.45,24.34.67,2.73,1.78,3.14,4.32,2.34,5.68-1.79,11.27-3.89,17.21-4.77,9.9-1.46,15.1,1.85,17.61,11.51,2.28,8.74,4.33,17.53,6.57,26.28,6.21,24.31,11.68,48.82,18.42,73,1.62,5.83,3.47,11.59,4.1,17.65.6,5.76-1.11,8.83-6.29,11.31a28.19,28.19,0,0,1-6.73,2c-4,.78-8.08,1-12,2.34-1.41.49-2.27,1.14-2.11,2.91q1.31,14.43,2.39,28.89c.18,2.42,1.1,2.66,3.24,2,16.12-4.77,32.53-8.39,48.91-12.08,1.65-.37,2.29,0,2.62,1.58.65,3.09,1.44,6.15,2.17,9.23,2.46,10.36,4.88,20.74,8,30.94.3,1,.34,2.33,2,1.77,7.64-2.59,15.66-3.59,23.4-5.77,1.41-.4,1.9-.89,1.49-2.45-1.36-5.24-2.52-10.53-3.84-15.78-2-8-4.23-15.88-5.85-23.94-.25-1.2-.86-2.44,1.16-2.9,4.32-1,8.57-2.23,12.88-3.19,6.3-1.39,6.32-1.32,7.92,4.86,3.05,11.8,6.11,23.6,9.09,35.42.4,1.58.94,2,2.6,1.59,7.28-1.77,14.59-3.38,21.81-5.42,2.72-.78,3.24-1.74,2.48-4.49-3.39-12.27-6.88-24.52-9.16-37.06-.67-3.68-.71-3.67,2.86-4.95,8.16-2.93,16.3-5.92,24.16-9.61,11-5.15,21.26-11.32,28.47-21.44C439,326.76,440.63,308.56,435,289.4Zm-72.76-1.56a39.89,39.89,0,0,0-11.83-.94c-2.08,0-4.17-.17-6.23,0-14.62,1.39-28.67,5.49-42.76,9.34-1.26.35-1.84.77-1.37,2.24,5.34,17,8.72,34.44,13.24,51.62,1.34,5.08,1.35,5.1,6.29,3.84,12.41-3.16,25-5.67,36.82-10.84,7.9-3.45,15.49-7.41,20.81-14.61C389.18,312.34,381.84,292.37,362.27,287.84Zm-18.88-39.9c10.63-10.77,8.71-27.18-4.05-35.45-6.11-4-12.91-4.83-20-4.63-13,.5-25.37,4.34-37.77,7.9-1.54.44-1.31,1.44-1.06,2.55q5.64,24.66,12.4,49c.45,1.64,1.14,2.08,2.86,1.74a141.07,141.07,0,0,0,20.11-5.41C326,260,335.7,255.74,343.39,247.94Z"/></svg>