<svg id="Layer_1" data-name="Layer 1" xmlns="http://www.w3.org/2000/svg" xmlns:xlink="http://www.w3.org/1999/xlink" viewBox="0 0 635 507"><defs><style>.cls-1{fill:#fff;}.cls-2{fill:url(#Foliage_2);}</style><linearGradient id="Foliage_2" x1="175.79" y1="137.92" x2="662.88" y2="542.84" gradientUnits="userSpaceOnUse"><stop offset="0" stop-color="#54ae6f"/><stop offset="0.49" stop-color="#00aa4f"/><stop offset="1" stop-color="#007736"/></linearGradient></defs><title>bch redesign</title><circle class="cls-1" cx="310.92" cy="262.03" r="171.88"/><path class="cls-2" d="M167,459.87H102.4a296,296,0,0,1,.74-414h65.92C100.31,98.1,62.55,166.29,62.51,252.86s37.7,154.82,106.19,206.89C168.38,460.23,167.63,459.87,167,459.87Zm358.76-414h-64a3.5,3.5,0,0,0-2.28.29c68.74,52,106.36,120.47,106.31,206.94S528,408,459.21,459.94h67.27a296,296,0,0,0-.69-414Zm21.77,210.89C545.65,384.41,441.07,488.73,310.74,487,182.55,485.28,78,379,80.73,247.88,83.35,121,187.52,18.51,314.24,19,441.57,18.42,549.55,123.35,547.56,256.79Zm-120.93-3c-3.08-10.53-8-20-17.34-26.39-8.16-5.58-17.47-7.36-27.09-8.11-.86-.07-2.16.41-2.5-.63-.26-.81.89-1.36,1.48-2a40.59,40.59,0,0,0,12.3-28.48,52.06,52.06,0,0,0-5.07-20.77c-6.67-14.46-17.57-23.17-33.58-25.29-11.19-1.48-22.3-.48-33.43.54-4.32.4-4.31.42-5.42-3.76-3.1-11.62-5.67-23.38-9-34.93-.6-2.06-1.37-2.51-3.4-2-6.88,1.87-13.8,3.6-20.72,5.31-1.6.4-2.08,1.1-1.66,2.73,1.12,4.23,2.07,8.51,3.17,12.75,2,7.57,4.09,15.1,5.35,22.83.21,1.3,1,2.9-1.34,3.46-5.26,1.28-10.49,2.68-15.71,4.1-1.63.44-2.14-.29-2.41-1.7q-.71-3.54-1.57-7Q265,129.73,261.27,115c-.25-1-.16-2.3-2-1.8q-11.09,3-22.23,5.66c-1.82.44-2,1.22-1.54,2.91,3.18,12.31,6.22,24.66,9.4,37,.49,1.9.24,2.72-1.83,3.14-4.63,1-9.21,2.13-13.8,3.27q-16.5,4.13-33,8.31c-1,.25-2.54.11-2,2.15,2.13,7.7,4.23,15.4,6.13,23.16.64,2.6,1.7,3,4.11,2.22,5.4-1.7,10.73-3.69,16.38-4.53,9.42-1.4,14.37,1.76,16.76,10.95,2.16,8.31,4.12,16.68,6.24,25,5.91,23.14,11.12,46.45,17.53,69.46,1.55,5.55,3.31,11,3.91,16.79.57,5.49-1.06,8.41-6,10.77a26.56,26.56,0,0,1-6.41,1.9c-3.79.74-7.68.95-11.37,2.23-1.34.46-2.15,1.08-2,2.77q1.25,13.73,2.27,27.48c.18,2.31,1.05,2.54,3.09,1.93,15.33-4.54,30.94-8,46.54-11.49,1.56-.35,2.17,0,2.49,1.51.61,2.94,1.37,5.85,2.06,8.78,2.34,9.86,4.64,19.73,7.59,29.44.29.95.32,2.22,1.92,1.68,7.26-2.46,14.9-3.41,22.26-5.49,1.35-.38,1.81-.85,1.42-2.33-1.29-5-2.4-10-3.65-15-1.9-7.58-4-15.1-5.58-22.77-.23-1.14-.81-2.33,1.11-2.76,4.11-.93,8.15-2.13,12.26-3,6-1.32,6-1.26,7.53,4.63,2.9,11.22,5.82,22.45,8.65,33.69.38,1.51.9,1.9,2.47,1.52,6.93-1.68,13.89-3.22,20.76-5.16,2.59-.73,3.08-1.65,2.36-4.27-3.23-11.67-6.55-23.33-8.72-35.26-.64-3.5-.68-3.5,2.72-4.71,7.77-2.79,15.51-5.63,23-9.14,10.46-4.91,20.23-10.78,27.09-20.4C430.45,289.33,432,272,426.63,253.78ZM357.4,252.3a38.06,38.06,0,0,0-11.26-.9c-2,0-4-.16-5.92,0-13.92,1.33-27.28,5.23-40.69,8.89-1.2.33-1.75.73-1.31,2.13,5.09,16.15,8.31,32.77,12.6,49.12,1.28,4.84,1.29,4.85,6,3.66,11.8-3,23.8-5.4,35-10.32,7.51-3.29,14.73-7.05,19.79-13.9C383,275.61,376,256.61,357.4,252.3Zm-18-38c10.11-10.26,8.29-25.87-3.86-33.74-5.82-3.77-12.28-4.6-19-4.41-12.4.48-24.14,4.14-35.94,7.52-1.46.42-1.24,1.38-1,2.43q5.36,23.48,11.79,46.67c.43,1.56,1.08,2,2.72,1.65a133.14,133.14,0,0,0,19.14-5.15C322.86,225.84,332.12,221.76,339.44,214.34Z"/></svg>