<svg id="Layer_1" data-name="Layer 1" xmlns="http://www.w3.org/2000/svg" xmlns:xlink="http://www.w3.org/1999/xlink" viewBox="0 0 1241 245.24"><defs><style>.cls-1{fill:url(#Foliage_2);}</style><linearGradient id="Foliage_2" x1="-62.42" y1="136.63" x2="446.5" y2="136.63" gradientUnits="userSpaceOnUse"><stop offset="0" stop-color="#54ae6f"/><stop offset="0.49" stop-color="#00aa4f"/><stop offset="1" stop-color="#007736"/></linearGradient></defs><title>bch redesign</title><path class="cls-1" d="M70.51,226.47H42.44a128.57,128.57,0,0,1,.32-179.79H71.39C41.54,69.36,25.14,99,25.12,136.57s16.37,67.23,46.12,89.85C71.1,226.63,70.77,226.47,70.51,226.47ZM226.31,46.69h-27.8a1.52,1.52,0,0,0-1,.13c29.85,22.59,46.19,52.32,46.17,89.87s-16.4,67.24-46.29,89.81h29.22a128.56,128.56,0,0,0-.31-179.81Zm9.46,91.58a101.48,101.48,0,0,1-102.85,100C77.25,237.5,31.85,191.34,33,134.41,34.17,79.31,79.41,34.79,134.44,35,189.74,34.75,236.64,80.32,235.77,138.27ZM183.25,137c-1.33-4.58-3.46-8.68-7.53-11.46-3.54-2.43-7.59-3.2-11.76-3.52-.38,0-.94.17-1.09-.28s.39-.59.64-.85a17.63,17.63,0,0,0,5.35-12.37,22.48,22.48,0,0,0-2.21-9c-2.89-6.29-7.63-10.07-14.58-11-4.86-.64-9.68-.2-14.52.24-1.87.17-1.87.18-2.35-1.63-1.35-5-2.46-10.16-3.92-15.18-.27-.89-.6-1.08-1.48-.85-3,.82-6,1.57-9,2.31-.7.17-.9.48-.72,1.18.49,1.84.9,3.7,1.38,5.54.85,3.29,1.78,6.56,2.32,9.92.09.56.42,1.26-.58,1.5-2.29.56-4.56,1.16-6.83,1.78-.7.19-.92-.12-1-.74-.2-1-.43-2-.68-3.06q-1.59-6.41-3.21-12.8c-.11-.42-.07-1-.89-.78q-4.81,1.27-9.65,2.45c-.79.2-.86.53-.67,1.27,1.38,5.34,2.7,10.71,4.08,16,.21.83.11,1.18-.79,1.37-2,.41-4,.92-6,1.42l-14.33,3.6c-.43.12-1.1,0-.86.94.93,3.34,1.84,6.69,2.67,10.06.27,1.13.73,1.29,1.78,1a48.63,48.63,0,0,1,7.11-2c4.09-.6,6.24.77,7.28,4.76.94,3.61,1.79,7.24,2.71,10.86,2.57,10,4.83,20.17,7.62,30.16a44.43,44.43,0,0,1,1.69,7.3c.25,2.38-.46,3.65-2.6,4.67a11.72,11.72,0,0,1-2.78.83,35.92,35.92,0,0,0-4.94,1c-.58.21-.93.47-.87,1.21q.54,6,1,11.93c.07,1,.45,1.1,1.34.84,6.66-2,13.44-3.46,20.21-5,.68-.15.94,0,1.08.65.27,1.28.6,2.55.9,3.82,1,4.28,2,8.57,3.29,12.78.13.42.14,1,.84.73,3.15-1.06,6.47-1.48,9.66-2.38.59-.16.79-.37.62-1-.56-2.17-1-4.35-1.59-6.52-.82-3.3-1.74-6.56-2.42-9.89-.1-.5-.35-1,.49-1.2,1.78-.41,3.53-.93,5.32-1.32,2.6-.58,2.61-.55,3.27,2q1.89,7.3,3.76,14.63c.16.66.39.83,1.07.66,3-.73,6-1.4,9-2.24,1.13-.32,1.34-.72,1-1.86-1.4-5.06-2.85-10.13-3.79-15.31-.28-1.52-.29-1.52,1.18-2.05,3.38-1.2,6.74-2.44,10-4,4.54-2.14,8.78-4.68,11.76-8.86C184.91,152.41,185.57,144.89,183.25,137Zm-30.07-.64a16,16,0,0,0-4.88-.39c-.86,0-1.72-.07-2.57,0-6,.57-11.85,2.27-17.68,3.86-.52.14-.76.32-.56.92,2.21,7,3.6,14.24,5.47,21.33.55,2.11.56,2.11,2.6,1.59,5.12-1.31,10.34-2.34,15.21-4.48,3.27-1.43,6.4-3.06,8.6-6C164.3,146.45,161.27,138.2,153.18,136.33Zm-7.8-16.49a9.27,9.27,0,0,0-1.67-14.65,13.91,13.91,0,0,0-8.26-1.92c-5.38.21-10.48,1.8-15.6,3.27-.64.18-.54.6-.44,1q2.32,10.2,5.12,20.27c.19.68.47.86,1.18.72a57.89,57.89,0,0,0,8.31-2.24C138.19,124.83,142.21,123.06,145.38,119.84Z"/><path d="M341.82,203.43q-10.9,0-21.7-.67a154.7,154.7,0,0,1-22.46-3.15V71.17a189.25,189.25,0,0,1,20.07-2.58q10.9-.86,20.26-.86a139.06,139.06,0,0,1,23.22,1.81,55.23,55.23,0,0,1,18.26,6.22,32.5,32.5,0,0,1,11.94,11.56q4.3,7.17,4.3,17.68,0,15.87-15.29,25,12.61,4.77,17.2,13a37.37,37.37,0,0,1,4.59,18.54q0,20.84-15.19,31.35T341.82,203.43Zm-15.1-82.19h14.52q13.77,0,19.69-3.53t5.92-11.37q0-8-6.11-11.28t-18-3.25q-3.82,0-8.22.1t-7.83.47Zm0,22.75V178.2q3.24.39,7.07.57t8.41.2q13.37,0,21.59-3.83T372,161q0-9.18-6.88-13.09T345.45,144Z"/><path d="M446.36,72.12q0,7.84-5.06,12.33a18.13,18.13,0,0,1-23.89,0q-5.07-4.49-5.07-12.33t5.07-12.32a18.13,18.13,0,0,1,23.89,0Q446.36,64.29,446.36,72.12Zm-2.67,129.59H415.21V101.17h28.48Z"/><path d="M460.5,76.14,489,71.55v29.62h34.21v23.71H489v35.35c0,6,1,10.77,3.15,14.34s6.34,5.35,12.71,5.35a54.72,54.72,0,0,0,9.46-.86,48.54,48.54,0,0,0,8.89-2.39l4,22.17a78.62,78.62,0,0,1-11.47,3.63A66.72,66.72,0,0,1,500.25,204q-11.65,0-19.3-3.15a30.23,30.23,0,0,1-12.23-8.79,32.61,32.61,0,0,1-6.4-13.67,80.09,80.09,0,0,1-1.82-17.77Z"/><path d="M528.73,151.44a59.15,59.15,0,0,1,3.54-20.54,48.09,48.09,0,0,1,26.47-28.2,53.64,53.64,0,0,1,21.79-4.2,70.82,70.82,0,0,1,14.72,1.43,72.34,72.34,0,0,1,13,4.11l-5.92,22.75a73.12,73.12,0,0,0-8.79-2.68A46.27,46.27,0,0,0,582.82,123Q570.2,123,564,130.8t-6.22,20.64q0,13.58,5.83,21T584,179.92a70.58,70.58,0,0,0,11.08-.95,47.5,47.5,0,0,0,10.9-3.06l4,23.31a66.81,66.81,0,0,1-12.42,3.64,82.66,82.66,0,0,1-16.44,1.53q-13.76,0-23.7-4.12a44.52,44.52,0,0,1-16.34-11.18,43.59,43.59,0,0,1-9.37-16.72A71.15,71.15,0,0,1,528.73,151.44Z"/><path d="M709.35,151.25a65.44,65.44,0,0,1-3.44,21.69A47.19,47.19,0,0,1,696,189.76a44.64,44.64,0,0,1-15.58,10.8,55.5,55.5,0,0,1-40.52,0,44.61,44.61,0,0,1-15.57-10.8,49.23,49.23,0,0,1-10.13-16.82,62.24,62.24,0,0,1-3.63-21.69,60.15,60.15,0,0,1,3.72-21.6A49.13,49.13,0,0,1,624.58,113a46.35,46.35,0,0,1,15.68-10.71A50.58,50.58,0,0,1,660,98.5a51.1,51.1,0,0,1,20,3.82A45.46,45.46,0,0,1,695.59,113a48.73,48.73,0,0,1,10.13,16.62A61.72,61.72,0,0,1,709.35,151.25Zm-29.05,0q0-13.19-5.26-20.74T660,123q-9.75,0-15.1,7.55t-5.35,20.74q0,13.19,5.35,20.93t15.1,7.74q9.75,0,15-7.74T680.3,151.25Z"/><path d="M753.5,72.12c0,5.23-1.7,9.34-5.07,12.33a18.13,18.13,0,0,1-23.89,0q-5.07-4.49-5.07-12.33t5.07-12.32a18.13,18.13,0,0,1,23.89,0C751.8,62.79,753.5,66.9,753.5,72.12Zm-2.68,129.59H722.34V101.17h28.48Z"/><path d="M768.59,104.62a159,159,0,0,1,18.73-3.92,154,154,0,0,1,24.08-1.82q12.81,0,21.32,3.35a32.08,32.08,0,0,1,13.47,9.46,36.91,36.91,0,0,1,7.07,14.52,77.39,77.39,0,0,1,2.1,18.73v56.77H826.89V148.38q0-13.75-3.64-19.49t-13.57-5.73c-2,0-4.2.09-6.49.28s-4.34.42-6.12.67v77.6H768.59Z"/><path d="M934.49,205.3a68.06,68.06,0,0,1-25.42-4.58,54.05,54.05,0,0,1-19.68-13.38,60.18,60.18,0,0,1-12.71-21.7q-4.5-12.9-4.49-29.52t5.06-29.53A63.81,63.81,0,0,1,890.92,84.9,57.54,57.54,0,0,1,911,71.52a65.24,65.24,0,0,1,24.47-4.59,87.33,87.33,0,0,1,14.81,1.14,91.24,91.24,0,0,1,11.47,2.68,54.82,54.82,0,0,1,7.93,3.06,46.05,46.05,0,0,1,4.21,2.29l-5.36,15.29a29.48,29.48,0,0,0-5-2.48c-2.16-.89-4.62-1.79-7.35-2.68a67.61,67.61,0,0,0-9-2.2,56.86,56.86,0,0,0-9.84-.86,47.26,47.26,0,0,0-18.92,3.64A39.09,39.09,0,0,0,904.1,97.32,47.53,47.53,0,0,0,895,114a72.24,72.24,0,0,0-3.15,22.08,79.09,79.09,0,0,0,2.77,21.59A47.33,47.33,0,0,0,903,174.44a37.2,37.2,0,0,0,13.85,10.79,45.88,45.88,0,0,0,19.4,3.83q12.81,0,21.22-2.68A91.7,91.7,0,0,0,970,181.6l4.78,15.29a26,26,0,0,1-4.78,2.39,64.48,64.48,0,0,1-8.6,2.77,105.92,105.92,0,0,1-12,2.3A109.77,109.77,0,0,1,934.49,205.3Z"/><path d="M1053.92,123.21a29.76,29.76,0,0,0-6.4-12,29.43,29.43,0,0,0-11.85-7.83q-7.37-2.78-18.06-2.77a98.55,98.55,0,0,0-17.39,1.43,54.86,54.86,0,0,0-11.47,3l2.1,14.72a54.29,54.29,0,0,1,9.84-2.58,83.92,83.92,0,0,1,15.39-1.24,26.73,26.73,0,0,1,11.18,2,17.44,17.44,0,0,1,6.78,5.35,20,20,0,0,1,3.45,7.65,40.47,40.47,0,0,1,1,8.7v5q-.76-.18-2.67-.57l-4.5-.86c-1.72-.31-3.53-.57-5.44-.76s-3.76-.29-5.55-.29a73.32,73.32,0,0,0-16,1.72,42.09,42.09,0,0,0-13.38,5.35,26.68,26.68,0,0,0-9.08,9.56,28.3,28.3,0,0,0-3.34,14.14,34.48,34.48,0,0,0,2.86,14.72,24.88,24.88,0,0,0,8,9.84,34.61,34.61,0,0,0,12.23,5.45,65.29,65.29,0,0,0,15.48,1.72q5.93,0,12-.48t11.18-1.05q5.16-.57,9.27-1.24l6.4-1.05V138.6A58.38,58.38,0,0,0,1053.92,123.21Zm-15.48,65.08a48.67,48.67,0,0,1-8.12,1.05q-4.87.28-11.18.29-10.51,0-16.63-3.73t-6.12-13.28a13,13,0,0,1,2.49-8.31,17.52,17.52,0,0,1,6.21-5,26.09,26.09,0,0,1,8.22-2.39,67.63,67.63,0,0,1,8.5-.57,70.07,70.07,0,0,1,10.42.66,22.69,22.69,0,0,1,6.21,1.63Z"/><path d="M1099,189.63c7.27,0,12.64-.95,16.15-2.87a9.68,9.68,0,0,0,5.26-9.17,12.18,12.18,0,0,0-5.16-10.32q-5.16-3.83-17-8.6-5.74-2.29-11-4.68a38.58,38.58,0,0,1-9.08-5.64,24.65,24.65,0,0,1-6.12-7.84,25,25,0,0,1-2.29-11.27q0-13.2,9.75-20.93t26.56-7.74a76.33,76.33,0,0,1,8.41.47c2.81.32,5.42.71,7.84,1.15s4.55.93,6.4,1.43,3.28,1,4.3,1.34l-3.25,15.29a44.54,44.54,0,0,0-9-3.15,58.09,58.09,0,0,0-14.72-1.63,27.08,27.08,0,0,0-13,3,9.81,9.81,0,0,0-5.55,9.27,12.65,12.65,0,0,0,1.25,5.73,13.12,13.12,0,0,0,3.82,4.49,31.41,31.41,0,0,0,6.4,3.73c2.55,1.14,5.61,2.36,9.18,3.63q7.07,2.69,12.61,5.26a39.14,39.14,0,0,1,9.46,6,23,23,0,0,1,6,8.31,30.19,30.19,0,0,1,2.1,12q0,13.75-10.22,20.83T1099,204.73q-13.18,0-20.64-2.2t-10.13-3.34l3.25-15.29c2,.76,5.28,1.91,9.75,3.44S1091.61,189.63,1099,189.63Z"/><path d="M1151.73,202.44V57.18l17.77-3.06V105a62.42,62.42,0,0,1,21.79-4q11.85,0,19.69,3.34a30.92,30.92,0,0,1,12.52,9.37,36.27,36.27,0,0,1,6.59,14.43,84,84,0,0,1,1.91,18.54v55.81h-17.77v-52a84.56,84.56,0,0,0-1.25-15.67,26.47,26.47,0,0,0-4.11-10.52,16.28,16.28,0,0,0-7.64-5.82,33.62,33.62,0,0,0-11.85-1.82,48.83,48.83,0,0,0-5.93.38q-3.06.39-5.83.86c-1.84.32-3.5.67-5,1a32.68,32.68,0,0,0-3.16,1v82.57Z"/></svg>