<svg id="Layer_1" data-name="Layer 1" xmlns="http://www.w3.org/2000/svg" xmlns:xlink="http://www.w3.org/1999/xlink" viewBox="0 0 635.27 577.17"><defs><style>.cls-1{fill:url(#Foliage_2);}</style><linearGradient id="Foliage_2" x1="60.96" y1="228.1" x2="561.41" y2="228.1" gradientUnits="userSpaceOnUse"><stop offset="0" stop-color="#54ae6f"/><stop offset="0.49" stop-color="#00aa4f"/><stop offset="1" stop-color="#007736"/></linearGradient></defs><title>bch redesign</title><path class="cls-1" d="M186.59,402.92H132a250.17,250.17,0,0,1,.62-349.84h55.72c-58.1,44.11-90,101.73-90,174.89S130.12,358.81,188,402.82C187.73,403.23,187.1,402.92,186.59,402.92ZM489.76,53.08h-54.1a3,3,0,0,0-1.92.24c58.08,44,89.88,101.81,89.83,174.89S491.67,359.07,433.5,403h56.85a250.15,250.15,0,0,0-.59-349.9Zm18.4,178.22c-1.61,107.85-90,196-200.12,194.54-108.33-1.45-196.68-91.28-194.38-202.07C115.87,116.56,203.9,29.94,311,30.35,418.59,29.86,509.85,118.53,508.16,231.3ZM406,228.76c-2.6-8.9-6.73-16.88-14.65-22.3-6.9-4.72-14.77-6.22-22.9-6.86-.73,0-1.82.35-2.11-.53-.22-.68.75-1.15,1.25-1.65A34.32,34.32,0,0,0,378,173.35a44.2,44.2,0,0,0-4.29-17.55c-5.64-12.22-14.84-19.58-28.37-21.37-9.46-1.25-18.85-.4-28.25.46-3.66.34-3.65.35-4.59-3.18-2.61-9.82-4.79-19.76-7.63-29.52-.51-1.74-1.16-2.12-2.87-1.65-5.82,1.58-11.66,3-17.51,4.48-1.36.34-1.76.93-1.4,2.31.94,3.58,1.75,7.19,2.68,10.78,1.65,6.39,3.45,12.75,4.51,19.28.18,1.11.82,2.46-1.13,2.93-4.44,1.08-8.86,2.26-13.28,3.46-1.37.38-1.8-.24-2-1.43-.39-2-.84-4-1.33-5.95q-3.09-12.47-6.25-24.92c-.2-.82-.13-1.94-1.71-1.52q-9.37,2.49-18.79,4.78c-1.54.37-1.68,1-1.31,2.46,2.7,10.4,5.26,20.84,8,31.24.42,1.61.21,2.3-1.55,2.66-3.91.8-7.78,1.8-11.66,2.76q-14,3.48-27.88,7c-.85.22-2.15.09-1.68,1.81,1.8,6.51,3.58,13,5.19,19.58.53,2.2,1.43,2.52,3.47,1.88,4.56-1.44,9.06-3.13,13.83-3.83,8-1.18,12.15,1.48,14.17,9.25,1.83,7,3.48,14.09,5.28,21.13,5,19.55,9.39,39.25,14.81,58.7,1.31,4.69,2.79,9.32,3.3,14.19.48,4.63-.89,7.1-5.06,9.09a21.82,21.82,0,0,1-5.42,1.61c-3.2.63-6.49.8-9.6,1.89-1.14.39-1.82.91-1.69,2.34q1,11.6,1.92,23.22c.14,1.95.88,2.15,2.6,1.64,13-3.84,26.15-6.75,39.33-9.71,1.32-.3,1.84,0,2.11,1.27.52,2.48,1.15,4.94,1.74,7.42,2,8.33,3.92,16.67,6.41,24.88.25.8.28,1.87,1.63,1.42,6.13-2.08,12.59-2.88,18.81-4.64,1.13-.32,1.53-.72,1.2-2-1.09-4.21-2-8.47-3.09-12.69-1.6-6.41-3.4-12.77-4.71-19.25-.19-1-.69-2,.94-2.33,3.47-.79,6.89-1.8,10.36-2.57,5.06-1.12,5.08-1.06,6.36,3.91,2.45,9.49,4.91,19,7.31,28.48.32,1.27.76,1.6,2.09,1.28,5.86-1.42,11.74-2.72,17.54-4.36,2.19-.62,2.6-1.4,2-3.61-2.72-9.86-5.53-19.71-7.37-29.8-.53-3-.57-2.95,2.31-4,6.56-2.35,13.1-4.76,19.42-7.72,8.84-4.15,17.1-9.11,22.9-17.24C409.2,258.8,410.47,244.17,406,228.76Zm-58.51-1.25a31.68,31.68,0,0,0-9.51-.76c-1.67,0-3.35-.14-5,0-11.76,1.13-23.06,4.42-34.39,7.52-1,.27-1.48.61-1.1,1.8,4.3,13.64,7,27.69,10.65,41.5,1.07,4.09,1.08,4.11,5.05,3.09,10-2.54,20.12-4.56,29.61-8.71,6.35-2.78,12.46-6,16.73-11.75C369.1,247.21,363.2,231.15,347.46,227.51Zm-15.18-32.08c8.55-8.67,7-21.86-3.25-28.51-4.92-3.19-10.38-3.89-16.07-3.73-10.48.4-20.4,3.5-30.37,6.35-1.23.36-1,1.17-.85,2.06q4.53,19.83,10,39.43c.36,1.32.91,1.68,2.3,1.4a112.81,112.81,0,0,0,16.17-4.35C318.28,205.15,326.1,201.69,332.28,195.43Z"/><path d="M65.67,525.2q-6.31,0-12.57-.39a87.75,87.75,0,0,1-13-1.82v-74.4a108.62,108.62,0,0,1,11.63-1.5q6.31-.49,11.74-.5a79,79,0,0,1,13.45,1.06,32,32,0,0,1,10.57,3.59,18.87,18.87,0,0,1,6.92,6.7,19.59,19.59,0,0,1,2.49,10.24q0,9.19-8.85,14.51,7.3,2.76,10,7.53A21.65,21.65,0,0,1,100.66,501q0,12.06-8.8,18.15T65.67,525.2Zm-8.75-47.61h8.42q8,0,11.4-2C79,474.18,80.17,472,80.17,469s-1.18-5.28-3.54-6.53-5.83-1.89-10.41-1.89c-1.47,0-3.06,0-4.76.06s-3.21.13-4.54.28Zm0,13.18v19.82c1.26.15,2.62.26,4.1.33s3.1.11,4.87.11q7.76,0,12.51-2.21t4.76-8.2c0-3.54-1.32-6.07-4-7.58s-6.46-2.27-11.41-2.27Z"/><path d="M126.23,449.14a9.06,9.06,0,0,1-2.93,7.14,10.51,10.51,0,0,1-13.84,0,10.14,10.14,0,0,1,0-14.28,10.51,10.51,0,0,1,13.84,0A9.06,9.06,0,0,1,126.23,449.14Zm-1.55,75.07H108.19V466h16.49Z"/><path d="M134.42,451.47l16.5-2.66V466h19.82V479.7H150.92v20.48a16.24,16.24,0,0,0,1.83,8.3c1.21,2.07,3.67,3.1,7.36,3.1a31.69,31.69,0,0,0,5.48-.49,29,29,0,0,0,5.15-1.39l2.32,12.85a46.79,46.79,0,0,1-6.64,2.1,38.83,38.83,0,0,1-9,.88,29.48,29.48,0,0,1-11.18-1.82,17.57,17.57,0,0,1-7.09-5.1,18.89,18.89,0,0,1-3.71-7.91,46.8,46.8,0,0,1-1.05-10.3Z"/><path d="M174,495.09A34.27,34.27,0,0,1,176,483.18a27.86,27.86,0,0,1,15.33-16.33A31.12,31.12,0,0,1,204,464.42a41.07,41.07,0,0,1,8.53.83,41.68,41.68,0,0,1,7.53,2.38l-3.44,13.17a42.11,42.11,0,0,0-5.09-1.54,26.18,26.18,0,0,0-6.2-.67q-7.31,0-10.9,4.54t-3.6,12q0,7.86,3.37,12.18t11.8,4.31a40.35,40.35,0,0,0,6.42-.55,27.56,27.56,0,0,0,6.31-1.77L221,522.77a38.74,38.74,0,0,1-7.19,2.1,47.55,47.55,0,0,1-9.52.89,35.73,35.73,0,0,1-13.73-2.39,25.76,25.76,0,0,1-9.47-6.47,25.37,25.37,0,0,1-5.43-9.69A41.28,41.28,0,0,1,174,495.09Z"/><path d="M278.58,495a37.82,37.82,0,0,1-2,12.56,27.31,27.31,0,0,1-5.75,9.75,25.86,25.86,0,0,1-9,6.25,32.13,32.13,0,0,1-23.47,0,25.82,25.82,0,0,1-9-6.25,28.61,28.61,0,0,1-5.87-9.75,36.1,36.1,0,0,1-2.1-12.56,34.82,34.82,0,0,1,2.16-12.52,28.37,28.37,0,0,1,6-9.63,27.11,27.11,0,0,1,9.08-6.2,31.1,31.1,0,0,1,23,0,26.28,26.28,0,0,1,9,6.2,28.16,28.16,0,0,1,5.87,9.63A35.71,35.71,0,0,1,278.58,495Zm-16.83,0q0-7.65-3.05-12a10,10,0,0,0-8.69-4.37,10.12,10.12,0,0,0-8.75,4.37q-3.09,4.38-3.1,12t3.1,12.12a10,10,0,0,0,8.75,4.48,9.87,9.87,0,0,0,8.69-4.48Q261.75,502.62,261.75,495Z"/><path d="M304.15,449.14a9.06,9.06,0,0,1-2.93,7.14,10.51,10.51,0,0,1-13.84,0,10.14,10.14,0,0,1,0-14.28,10.51,10.51,0,0,1,13.84,0A9.06,9.06,0,0,1,304.15,449.14Zm-1.55,75.07H286.1V466h16.5Z"/><path d="M312.9,468a91.81,91.81,0,0,1,10.85-2.27,89.15,89.15,0,0,1,13.95-1.05A34,34,0,0,1,350,466.58a18.59,18.59,0,0,1,7.81,5.48,21.46,21.46,0,0,1,4.09,8.41,44.91,44.91,0,0,1,1.22,10.85v32.89h-16.5V493.32q0-8-2.1-11.3t-7.86-3.32c-1.18,0-2.44.06-3.76.17s-2.51.24-3.55.39v45H312.9Z"/><path d="M409,526.29a39.37,39.37,0,0,1-14.73-2.66,31.27,31.27,0,0,1-11.4-7.75,34.83,34.83,0,0,1-7.36-12.57,51.73,51.73,0,0,1-2.6-17.1,46.53,46.53,0,0,1,2.93-17.11,37,37,0,0,1,7.92-12.56,33.35,33.35,0,0,1,11.62-7.75,37.82,37.82,0,0,1,14.17-2.66,50.56,50.56,0,0,1,8.58.66,54.12,54.12,0,0,1,6.65,1.55,32.86,32.86,0,0,1,4.59,1.78c1.18.59,2,1,2.44,1.32l-3.1,8.86a18.13,18.13,0,0,0-2.88-1.44c-1.26-.51-2.68-1-4.26-1.55a39,39,0,0,0-5.21-1.27,32.91,32.91,0,0,0-5.7-.5,27.43,27.43,0,0,0-11,2.1,22.74,22.74,0,0,0-8.3,6.09,27.39,27.39,0,0,0-5.26,9.69,41.76,41.76,0,0,0-1.83,12.79,45.3,45.3,0,0,0,1.61,12.51,27.36,27.36,0,0,0,4.81,9.69,21.61,21.61,0,0,0,8,6.25A26.58,26.58,0,0,0,410,516.88a41.34,41.34,0,0,0,12.29-1.55,53.85,53.85,0,0,0,7.3-2.77l2.77,8.86a15.39,15.39,0,0,1-2.77,1.38,39.16,39.16,0,0,1-5,1.61A63.24,63.24,0,0,1,409,526.29Z"/><path d="M478.18,478.74a17.15,17.15,0,0,0-3.71-7,17,17,0,0,0-6.86-4.54,29.85,29.85,0,0,0-10.46-1.6,56.8,56.8,0,0,0-10.08.83,31.6,31.6,0,0,0-6.64,1.71l1.22,8.53a30.62,30.62,0,0,1,5.7-1.5,48.58,48.58,0,0,1,8.91-.72,15.33,15.33,0,0,1,6.48,1.17,10.07,10.07,0,0,1,3.93,3.1,11.48,11.48,0,0,1,2,4.42,23.23,23.23,0,0,1,.55,5v2.88l-1.55-.33c-.73-.15-1.6-.32-2.6-.5s-2.05-.33-3.15-.44-2.18-.17-3.21-.17a41.88,41.88,0,0,0-9.3,1,24.2,24.2,0,0,0-7.75,3.1,15.4,15.4,0,0,0-5.26,5.53,16.44,16.44,0,0,0-1.94,8.2,19.89,19.89,0,0,0,1.66,8.52,14.44,14.44,0,0,0,4.65,5.7,20.08,20.08,0,0,0,7.09,3.16,38.11,38.11,0,0,0,9,1c2.29,0,4.6-.1,6.92-.28s4.49-.39,6.48-.61,3.78-.46,5.37-.72l3.71-.61v-36A33.54,33.54,0,0,0,478.18,478.74Zm-9,37.69a27.58,27.58,0,0,1-4.7.61q-2.82.16-6.48.17-6.09,0-9.63-2.16t-3.54-7.69a7.56,7.56,0,0,1,1.44-4.82,10.13,10.13,0,0,1,3.59-2.88,15.19,15.19,0,0,1,4.77-1.38,39.07,39.07,0,0,1,4.92-.33,40,40,0,0,1,6,.38,13.45,13.45,0,0,1,3.59.94Z"/><path d="M504.3,517.21q6.3,0,9.35-1.66a5.63,5.63,0,0,0,3.05-5.32,7.05,7.05,0,0,0-3-6,47.29,47.29,0,0,0-9.86-5c-2.21-.88-4.33-1.79-6.36-2.71a22,22,0,0,1-5.26-3.27,14,14,0,0,1-3.54-4.54,14.42,14.42,0,0,1-1.33-6.53A14.67,14.67,0,0,1,493,470.1q5.65-4.49,15.39-4.48a44,44,0,0,1,4.87.27c1.63.19,3.14.41,4.54.67s2.64.53,3.71.83,1.9.55,2.49.77L522.12,477a26,26,0,0,0-5.2-1.83,34,34,0,0,0-8.53-.94,15.7,15.7,0,0,0-7.53,1.72,5.68,5.68,0,0,0-3.21,5.37,7.34,7.34,0,0,0,.72,3.32,7.59,7.59,0,0,0,2.22,2.6,18,18,0,0,0,3.71,2.16c1.47.66,3.24,1.37,5.31,2.1,2.73,1,5.17,2.05,7.31,3.05a22.89,22.89,0,0,1,5.48,3.49,13.43,13.43,0,0,1,3.49,4.81,17.5,17.5,0,0,1,1.21,6.92q0,8-5.92,12.07T504.3,526a44,44,0,0,1-12-1.28,61,61,0,0,1-5.87-1.93l1.88-8.86c1.18.44,3.07,1.11,5.65,2A32.42,32.42,0,0,0,504.3,517.21Z"/><path d="M534.84,524.63V440.48l10.3-1.77v29.45a36.28,36.28,0,0,1,12.62-2.32,29.23,29.23,0,0,1,11.4,1.93,17.86,17.86,0,0,1,7.25,5.43,20.81,20.81,0,0,1,3.82,8.36,48.41,48.41,0,0,1,1.11,10.74v32.33H571V494.51a49.17,49.17,0,0,0-.72-9.08,15.37,15.37,0,0,0-2.38-6.09,9.37,9.37,0,0,0-4.42-3.37,19.54,19.54,0,0,0-6.87-1.05,27.14,27.14,0,0,0-3.43.22c-1.18.15-2.31.31-3.38.5s-2,.38-2.88.6a17.21,17.21,0,0,0-1.82.56v47.83Z"/></svg>